<?xml version="1.0" encoding="UTF-8" standalone="no"?>
<!DOCTYPE svg PUBLIC "-//W3C//DTD SVG 1.1//EN"
 "http://www.w3.org/Graphics/SVG/1.1/DTD/svg11.dtd">
<!-- Generated by graphviz version 2.43.0 (0)
 -->
<!-- Title: Ontologia1 Pages: 1 -->
<svg width="710pt" height="633pt"
 viewBox="0.00 0.00 709.76 632.73" xmlns="http://www.w3.org/2000/svg" xmlns:xlink="http://www.w3.org/1999/xlink">
<g id="graph0" class="graph" transform="scale(1 1) rotate(0) translate(36 596.73)">
<title>Ontologia1</title>
<polygon fill="white" stroke="transparent" points="-36,36 -36,-596.73 673.76,-596.73 673.76,36 -36,36"/>
<text text-anchor="start" x="167.88" y="-546.53" font-family="Arial" font-weight="bold" font-size="14.00">Ontología 1: Personas y Relaciones Familiares</text>
<g id="clust1" class="cluster">
<title>cluster_legend</title>
<path fill="white" stroke="#cccccc" d="M549.76,-237C549.76,-237 617.76,-237 617.76,-237 623.76,-237 629.76,-243 629.76,-249 629.76,-249 629.76,-517.73 629.76,-517.73 629.76,-523.73 623.76,-529.73 617.76,-529.73 617.76,-529.73 549.76,-529.73 549.76,-529.73 543.76,-529.73 537.76,-523.73 537.76,-517.73 537.76,-517.73 537.76,-249 537.76,-249 537.76,-243 543.76,-237 549.76,-237"/>
<text text-anchor="start" x="563.76" y="-518.73" font-family="Arial" font-weight="bold" font-size="10.00">Leyenda</text>
</g>
<!-- Mamiferos -->
<g id="node1" class="node">
<title>Mamiferos</title>
<ellipse fill="#a8d5a2" stroke="#4a8c3f" stroke-width="2" cx="198.76" cy="-18" rx="40.78" ry="18"/>
<text text-anchor="middle" x="198.76" y="-15.2" font-family="Arial" font-size="11.00">Mamíferos</text>
</g>
<!-- Personas -->
<g id="node2" class="node">
<title>Personas</title>
<ellipse fill="#a8d5a2" stroke="#4a8c3f" stroke-width="2" cx="267.76" cy="-136" rx="37.07" ry="18"/>
<text text-anchor="middle" x="267.76" y="-133.2" font-family="Arial" font-size="11.00">Personas</text>
</g>
<!-- Personas&#45;&gt;Mamiferos -->
<g id="edge1" class="edge">
<title>Personas&#45;&gt;Mamiferos</title>
<path fill="none" stroke="#4a8c3f" stroke-width="2" d="M248.29,-120.59C236.59,-110.92 222.35,-97.21 213.76,-82 207.62,-71.13 203.98,-57.84 201.83,-46.28"/>
<polygon fill="#4a8c3f" stroke="#4a8c3f" stroke-width="2" points="205.27,-45.59 200.25,-36.26 198.35,-46.68 205.27,-45.59"/>
<text text-anchor="middle" x="239.76" y="-74.8" font-family="Arial" font-size="9.00" fill="#4a8c3f"> &#160;subClassOf</text>
</g>
<!-- TienePiernas -->
<g id="node7" class="node">
<title>TienePiernas</title>
<polygon fill="#fff3cd" stroke="#d4a017" stroke-width="1.5" points="377.76,-36 297.76,-36 297.76,0 377.76,0 377.76,-36"/>
<text text-anchor="middle" x="337.76" y="-21.2" font-family="Arial" font-size="11.00">TienePiernas</text>
<text text-anchor="middle" x="337.76" y="-9.2" font-family="Arial" font-size="11.00">= 2</text>
</g>
<!-- Personas&#45;&gt;TienePiernas -->
<g id="edge6" class="edge">
<title>Personas&#45;&gt;TienePiernas</title>
<path fill="none" stroke="#d4a017" stroke-dasharray="1,5" d="M277.78,-118.38C289.35,-99.22 308.5,-67.49 322.04,-45.04"/>
<polygon fill="#d4a017" stroke="#d4a017" points="325.12,-46.72 327.29,-36.35 319.12,-43.1 325.12,-46.72"/>
<text text-anchor="middle" x="329.26" y="-74.8" font-family="Arial" font-size="9.00" fill="#d4a017"> &#160;restricción</text>
</g>
<!-- PersonasFemeninas -->
<g id="node3" class="node">
<title>PersonasFemeninas</title>
<ellipse fill="#f4a6a6" stroke="#c0392b" stroke-width="2" cx="267.76" cy="-254" rx="69.51" ry="18"/>
<text text-anchor="middle" x="267.76" y="-251.2" font-family="Arial" font-size="11.00">PersonasFemeninas</text>
</g>
<!-- PersonasFemeninas&#45;&gt;Personas -->
<g id="edge2" class="edge">
<title>PersonasFemeninas&#45;&gt;Personas</title>
<path fill="none" stroke="#4a8c3f" stroke-width="2" d="M267.76,-235.88C267.76,-217.04 267.76,-186.47 267.76,-164.3"/>
<polygon fill="#4a8c3f" stroke="#4a8c3f" stroke-width="2" points="271.26,-164.19 267.76,-154.19 264.26,-164.19 271.26,-164.19"/>
<text text-anchor="middle" x="293.76" y="-192.8" font-family="Arial" font-size="9.00" fill="#4a8c3f"> &#160;subClassOf</text>
</g>
<!-- PersonasMasculinas -->
<g id="node4" class="node">
<title>PersonasMasculinas</title>
<ellipse fill="#a6c8f4" stroke="#2e75b6" stroke-width="2" cx="69.76" cy="-254" rx="69.51" ry="18"/>
<text text-anchor="middle" x="69.76" y="-251.2" font-family="Arial" font-size="11.00">PersonasMasculinas</text>
</g>
<!-- PersonasMasculinas&#45;&gt;Personas -->
<g id="edge3" class="edge">
<title>PersonasMasculinas&#45;&gt;Personas</title>
<path fill="none" stroke="#4a8c3f" stroke-width="2" d="M96.46,-237.36C132.71,-216.12 197.41,-178.21 236.08,-155.56"/>
<polygon fill="#4a8c3f" stroke="#4a8c3f" stroke-width="2" points="237.99,-158.5 244.85,-150.42 234.45,-152.46 237.99,-158.5"/>
<text text-anchor="middle" x="200.76" y="-192.8" font-family="Arial" font-size="9.00" fill="#4a8c3f"> &#160;subClassOf</text>
</g>
<!-- Mary -->
<g id="node5" class="node">
<title>Mary</title>
<ellipse fill="#e8a0a0" stroke="#c0392b" stroke-width="2.5" cx="165.76" cy="-490" rx="27" ry="18"/>
<text text-anchor="middle" x="165.76" y="-487.2" font-family="Arial" font-size="11.00">Mary</text>
</g>
<!-- Mary&#45;&gt;PersonasFemeninas -->
<g id="edge4" class="edge">
<title>Mary&#45;&gt;PersonasFemeninas</title>
<path fill="none" stroke="#888888" stroke-dasharray="5,2" d="M177.86,-473.4C185.42,-463.17 194.96,-449.27 201.76,-436 228.53,-383.7 249.64,-317.95 260.25,-281.84"/>
<polygon fill="#888888" stroke="#888888" points="263.66,-282.63 263.08,-272.05 256.94,-280.68 263.66,-282.63"/>
<text text-anchor="middle" x="254.26" y="-369.8" font-family="Arial" font-size="9.00" fill="#888888"> &#160;rdf:type</text>
</g>
<!-- John -->
<g id="node6" class="node">
<title>John</title>
<ellipse fill="#8ab4e8" stroke="#2e75b6" stroke-width="2.5" cx="69.76" cy="-372" rx="27" ry="18"/>
<text text-anchor="middle" x="69.76" y="-369.2" font-family="Arial" font-size="11.00">John</text>
</g>
<!-- Mary&#45;&gt;John -->
<g id="edge9" class="edge">
<title>Mary&#45;&gt;John</title>
<path fill="none" stroke="#c0392b" stroke-width="2" d="M139.21,-486.4C109.03,-481.86 61.08,-469.5 38.76,-436 30.11,-423.02 37.85,-407.27 47.76,-394.77"/>
<polygon fill="#c0392b" stroke="#c0392b" stroke-width="2" points="50.52,-396.93 54.43,-387.08 45.23,-392.34 50.52,-396.93"/>
<text text-anchor="middle" x="66.26" y="-428.8" font-family="Arial" font-size="9.00" fill="#c0392b"> &#160;HermanaDe</text>
</g>
<!-- John&#45;&gt;PersonasMasculinas -->
<g id="edge5" class="edge">
<title>John&#45;&gt;PersonasMasculinas</title>
<path fill="none" stroke="#888888" stroke-dasharray="5,2" d="M69.76,-353.88C69.76,-335.04 69.76,-304.47 69.76,-282.3"/>
<polygon fill="#888888" stroke="#888888" points="73.26,-282.19 69.76,-272.19 66.26,-282.19 73.26,-282.19"/>
<text text-anchor="middle" x="87.26" y="-310.8" font-family="Arial" font-size="9.00" fill="#888888"> &#160;rdf:type</text>
</g>
<!-- John&#45;&gt;Mary -->
<g id="edge10" class="edge">
<title>John&#45;&gt;Mary</title>
<path fill="none" stroke="#2e75b6" stroke-width="2" d="M82.31,-388.17C98.7,-407.97 127.54,-442.82 146.65,-465.91"/>
<polygon fill="#2e75b6" stroke="#2e75b6" stroke-width="2" points="144.13,-468.36 153.2,-473.84 149.53,-463.9 144.13,-468.36"/>
<text text-anchor="middle" x="154.26" y="-428.8" font-family="Arial" font-size="9.00" fill="#2e75b6"> &#160;TieneHermana</text>
</g>
<!-- TieneMadre -->
<g id="node8" class="node">
<title>TieneMadre</title>
<polygon fill="#fff3cd" stroke="#d4a017" stroke-width="1.5" stroke-dasharray="5,2" points="487.76,-390 413.76,-390 413.76,-354 487.76,-354 487.76,-390"/>
<text text-anchor="middle" x="450.76" y="-375.2" font-family="Arial" font-size="11.00">TieneMadre</text>
<text text-anchor="middle" x="450.76" y="-363.2" font-family="Arial" font-size="11.00">(funcional)</text>
</g>
<!-- TieneMadre&#45;&gt;Personas -->
<g id="edge7" class="edge">
<title>TieneMadre&#45;&gt;Personas</title>
<path fill="none" stroke="#d4a017" stroke-dasharray="1,5" d="M442.41,-353.83C425.34,-319.87 383.8,-242.84 333.76,-190 322.51,-178.12 308.56,-166.55 296.39,-157.27"/>
<polygon fill="#d4a017" stroke="#d4a017" points="298.41,-154.41 288.31,-151.23 294.23,-160.02 298.41,-154.41"/>
<text text-anchor="middle" x="414.76" y="-251.8" font-family="Arial" font-size="9.00" fill="#d4a017"> &#160;dominio</text>
</g>
<!-- TieneMadre&#45;&gt;PersonasFemeninas -->
<g id="edge8" class="edge">
<title>TieneMadre&#45;&gt;PersonasFemeninas</title>
<path fill="none" stroke="#d4a017" stroke-dasharray="1,5" d="M423.75,-353.88C391.22,-333.26 336.54,-298.6 301.32,-276.27"/>
<polygon fill="#d4a017" stroke="#d4a017" points="303.13,-273.28 292.81,-270.88 299.38,-279.19 303.13,-273.28"/>
<text text-anchor="middle" x="379.26" y="-310.8" font-family="Arial" font-size="9.00" fill="#d4a017"> &#160;rango</text>
</g>
<!-- leg_class -->
<g id="node9" class="node">
<title>leg_class</title>
<ellipse fill="#a8d5a2" stroke="#4a8c3f" cx="583.76" cy="-490" rx="28.98" ry="12.96"/>
<text text-anchor="middle" x="583.76" y="-487.8" font-family="Arial" font-size="9.00">Clase</text>
</g>
<!-- leg_ind -->
<g id="node10" class="node">
<title>leg_ind</title>
<ellipse fill="#e8a0a0" stroke="#c0392b" cx="583.76" cy="-372" rx="38.37" ry="12.96"/>
<text text-anchor="middle" x="583.76" y="-369.8" font-family="Arial" font-size="9.00">Individuo</text>
</g>
<!-- leg_class&#45;&gt;leg_ind -->
<!-- leg_prop -->
<g id="node11" class="node">
<title>leg_prop</title>
<polygon fill="#fff3cd" stroke="#d4a017" points="613.26,-263 554.26,-263 554.26,-245 613.26,-245 613.26,-263"/>
<text text-anchor="middle" x="583.76" y="-251.8" font-family="Arial" font-size="9.00">Propiedad</text>
</g>
<!-- leg_ind&#45;&gt;leg_prop -->
</g>
</svg>
