<?xml version="1.0" encoding="UTF-8" standalone="no"?>
<!DOCTYPE svg PUBLIC "-//W3C//DTD SVG 1.1//EN"
 "http://www.w3.org/Graphics/SVG/1.1/DTD/svg11.dtd">
<!-- Generated by graphviz version 2.43.0 (0)
 -->
<!-- Title: OntologiaBiblioteca Pages: 1 -->
<svg width="1040pt" height="776pt"
 viewBox="0.00 0.00 1039.50 776.00" xmlns="http://www.w3.org/2000/svg" xmlns:xlink="http://www.w3.org/1999/xlink">
<g id="graph0" class="graph" transform="scale(1 1) rotate(0) translate(36 740)">
<title>OntologiaBiblioteca</title>
<polygon fill="white" stroke="transparent" points="-36,36 -36,-740 1003.5,-740 1003.5,36 -36,36"/>
<text text-anchor="start" x="300.25" y="-683.4" font-family="Arial" font-weight="bold" font-size="22.00" fill="#1f4e79">Ontología de Sistema de Biblioteca</text>
<text text-anchor="start" x="375.25" y="-669.4" font-family="Arial" font-size="12.00" fill="#666666">http://www.uag.mx/ontologias/biblioteca#</text>
<g id="clust5" class="cluster">
<title>cluster_legend</title>
<path fill="#fafafa" stroke="#aaaaaa" stroke-dasharray="5,2" d="M614,-432C614,-432 816,-432 816,-432 822,-432 828,-438 828,-444 828,-444 828,-642 828,-642 828,-648 822,-654 816,-654 816,-654 614,-654 614,-654 608,-654 602,-648 602,-642 602,-642 602,-444 602,-444 602,-438 608,-432 614,-432"/>
<text text-anchor="start" x="692.5" y="-642.2" font-family="Arial" font-weight="bold" font-size="11.00">Leyenda</text>
</g>
<!-- RecursoBibliografico -->
<g id="node1" class="node">
<title>RecursoBibliografico</title>
<path fill="#eeedfe" stroke="#534ab7" stroke-width="1.2" d="M467,-388C467,-388 363,-388 363,-388 357,-388 351,-382 351,-376 351,-376 351,-364 351,-364 351,-358 357,-352 363,-352 363,-352 467,-352 467,-352 473,-352 479,-358 479,-364 479,-364 479,-376 479,-376 479,-382 473,-388 467,-388"/>
<text text-anchor="start" x="359" y="-372.2" font-family="Arial" font-weight="bold" font-size="11.00" fill="#26215c">RecursoBibliografico</text>
<text text-anchor="start" x="383" y="-362.8" font-family="Arial" font-style="italic" font-size="9.00" fill="#26215c">Clase abstracta</text>
</g>
<!-- Autor -->
<g id="node6" class="node">
<title>Autor</title>
<path fill="#9fe1cb" stroke="#0f6e56" stroke-width="1.2" d="M50,-274C50,-274 20,-274 20,-274 14,-274 8,-268 8,-262 8,-262 8,-250 8,-250 8,-244 14,-238 20,-238 20,-238 50,-238 50,-238 56,-238 62,-244 62,-250 62,-250 62,-262 62,-262 62,-268 56,-274 50,-274"/>
<text text-anchor="start" x="19.5" y="-254.2" font-family="Arial" font-weight="bold" font-size="11.00" fill="#04342c">Autor</text>
</g>
<!-- RecursoBibliografico&#45;&gt;Autor -->
<g id="edge9" class="edge">
<title>RecursoBibliografico&#45;&gt;Autor</title>
<path fill="none" stroke="#0f6e56" stroke-dasharray="5,2" d="M350.94,-358.36C307.57,-350.43 249.24,-338.33 199,-323 153.98,-309.26 104.04,-288.3 71.24,-273.69"/>
<polygon fill="#0f6e56" stroke="#0f6e56" points="62.05,-269.57 73.01,-269.56 66.61,-271.62 71.17,-273.66 71.17,-273.66 71.17,-273.66 66.61,-271.62 69.33,-277.77 62.05,-269.57 62.05,-269.57"/>
<text text-anchor="middle" x="224.5" y="-310.8" font-family="Arial" font-size="9.00" fill="#0f6e56"> &#160;escritoPor &#160;</text>
</g>
<!-- Editor -->
<g id="node7" class="node">
<title>Editor</title>
<path fill="#9fe1cb" stroke="#0f6e56" stroke-width="1.2" d="M152,-274C152,-274 122,-274 122,-274 116,-274 110,-268 110,-262 110,-262 110,-250 110,-250 110,-244 116,-238 122,-238 122,-238 152,-238 152,-238 158,-238 164,-244 164,-250 164,-250 164,-262 164,-262 164,-268 158,-274 152,-274"/>
<text text-anchor="start" x="120.5" y="-254.2" font-family="Arial" font-weight="bold" font-size="11.00" fill="#04342c">Editor</text>
</g>
<!-- RecursoBibliografico&#45;&gt;Editor -->
<g id="edge10" class="edge">
<title>RecursoBibliografico&#45;&gt;Editor</title>
<path fill="none" stroke="#0f6e56" stroke-dasharray="5,2" d="M372.78,-351.99C318.41,-330.09 224.83,-292.38 173.43,-271.68"/>
<polygon fill="#0f6e56" stroke="#0f6e56" points="164.04,-267.89 175,-267.46 168.68,-269.76 173.32,-271.63 173.32,-271.63 173.32,-271.63 168.68,-269.76 171.63,-275.81 164.04,-267.89 164.04,-267.89"/>
<text text-anchor="middle" x="320.5" y="-310.8" font-family="Arial" font-size="9.00" fill="#0f6e56"> &#160;editadoPor &#160;</text>
</g>
<!-- Editorial -->
<g id="node11" class="node">
<title>Editorial</title>
<path fill="#faece7" stroke="#993c1d" stroke-width="1.2" d="M438,-274C438,-274 392,-274 392,-274 386,-274 380,-268 380,-262 380,-262 380,-250 380,-250 380,-244 386,-238 392,-238 392,-238 438,-238 438,-238 444,-238 450,-244 450,-250 450,-250 450,-262 450,-262 450,-268 444,-274 438,-274"/>
<text text-anchor="start" x="392.5" y="-258.2" font-family="Arial" font-weight="bold" font-size="11.00" fill="#4a1b0c">Editorial</text>
<text text-anchor="start" x="388" y="-248.8" font-family="Arial" font-size="9.00" fill="#4a1b0c">nombre, país</text>
</g>
<!-- RecursoBibliografico&#45;&gt;Editorial -->
<g id="edge11" class="edge">
<title>RecursoBibliografico&#45;&gt;Editorial</title>
<path fill="none" stroke="#993c1d" stroke-dasharray="5,2" d="M415,-351.99C415,-334.06 415,-305.56 415,-284.44"/>
<polygon fill="#993c1d" stroke="#993c1d" points="415,-274.17 419.5,-284.17 415,-279.17 415,-284.17 415,-284.17 415,-284.17 415,-279.17 410.5,-284.17 415,-274.17 415,-274.17"/>
<text text-anchor="middle" x="447" y="-315.8" font-family="Arial" font-size="9.00" fill="#993c1d"> &#160;publicadoPor &#160;</text>
<text text-anchor="middle" x="447" y="-305.8" font-family="Arial" font-size="9.00" fill="#993c1d"> &#160;[functional] &#160;</text>
</g>
<!-- CopiaFisica -->
<g id="node12" class="node">
<title>CopiaFisica</title>
<path fill="#f5c4b3" stroke="#993c1d" stroke-width="1.2" d="M595.5,-36C595.5,-36 508.5,-36 508.5,-36 502.5,-36 496.5,-30 496.5,-24 496.5,-24 496.5,-12 496.5,-12 496.5,-6 502.5,0 508.5,0 508.5,0 595.5,0 595.5,0 601.5,0 607.5,-6 607.5,-12 607.5,-12 607.5,-24 607.5,-24 607.5,-30 601.5,-36 595.5,-36"/>
<text text-anchor="start" x="521" y="-20.2" font-family="Arial" font-weight="bold" font-size="11.00" fill="#4a1b0c">CopiaFisica</text>
<text text-anchor="start" x="504.5" y="-10.8" font-family="Arial" font-size="9.00" fill="#4a1b0c">código, estado, estante</text>
</g>
<!-- RecursoBibliografico&#45;&gt;CopiaFisica -->
<g id="edge12" class="edge">
<title>RecursoBibliografico&#45;&gt;CopiaFisica</title>
<path fill="none" stroke="#534ab7" stroke-dasharray="5,2" d="M455.07,-351.95C467.68,-344.75 480.51,-335.16 489,-323 549.73,-236.02 554.32,-103.1 553.19,-46.29"/>
<polygon fill="#534ab7" stroke="#534ab7" points="552.92,-36.28 557.69,-46.15 553.05,-41.28 553.19,-46.28 553.19,-46.28 553.19,-46.28 553.05,-41.28 548.69,-46.4 552.92,-36.28 552.92,-36.28"/>
<text text-anchor="middle" x="574" y="-201.8" font-family="Arial" font-size="9.00" fill="#534ab7"> &#160;tieneCopia &#160;</text>
<text text-anchor="middle" x="574" y="-191.8" font-family="Arial" font-size="9.00" fill="#534ab7"> &#160;↔ esCopiade &#160;</text>
</g>
<!-- Categoria -->
<g id="node14" class="node">
<title>Categoria</title>
<path fill="#fbeaf0" stroke="#993556" stroke-width="1.2" d="M827.5,-160C827.5,-160 762.5,-160 762.5,-160 756.5,-160 750.5,-154 750.5,-148 750.5,-148 750.5,-136 750.5,-136 750.5,-130 756.5,-124 762.5,-124 762.5,-124 827.5,-124 827.5,-124 833.5,-124 839.5,-130 839.5,-136 839.5,-136 839.5,-148 839.5,-148 839.5,-154 833.5,-160 827.5,-160"/>
<text text-anchor="start" x="769" y="-144.2" font-family="Arial" font-weight="bold" font-size="11.00" fill="#4b1528">Categoría</text>
<text text-anchor="start" x="758.5" y="-134.8" font-family="Arial" font-size="9.00" fill="#4b1528">nombreCategoria</text>
</g>
<!-- RecursoBibliografico&#45;&gt;Categoria -->
<g id="edge13" class="edge">
<title>RecursoBibliografico&#45;&gt;Categoria</title>
<path fill="none" stroke="#993556" stroke-dasharray="5,2" d="M479.28,-358.45C511.93,-351.4 551.47,-340.19 584,-323 662.3,-281.63 737,-206.8 772.86,-167.94"/>
<polygon fill="#993556" stroke="#993556" points="779.91,-160.22 776.49,-170.63 776.54,-163.91 773.17,-167.6 773.17,-167.6 773.17,-167.6 776.54,-163.91 769.84,-164.57 779.91,-160.22 779.91,-160.22"/>
<text text-anchor="middle" x="747.5" y="-253.8" font-family="Arial" font-size="9.00" fill="#993556"> &#160;perteneceACategoria &#160;</text>
</g>
<!-- Libro -->
<g id="node2" class="node">
<title>Libro</title>
<path fill="#cecbf6" stroke="#534ab7" stroke-width="1.2" d="M332,-551C332,-551 280,-551 280,-551 274,-551 268,-545 268,-539 268,-539 268,-527 268,-527 268,-521 274,-515 280,-515 280,-515 332,-515 332,-515 338,-515 344,-521 344,-527 344,-527 344,-539 344,-539 344,-545 338,-551 332,-551"/>
<text text-anchor="start" x="292" y="-535.2" font-family="Arial" font-weight="bold" font-size="11.00" fill="#26215c">Libro</text>
<text text-anchor="start" x="276" y="-525.8" font-family="Arial" font-size="9.00" fill="#26215c">ISBN, ≥1 autor</text>
</g>
<!-- Libro&#45;&gt;RecursoBibliografico -->
<g id="edge1" class="edge">
<title>Libro&#45;&gt;RecursoBibliografico</title>
<path fill="none" stroke="#333333" stroke-width="1.5" d="M315.05,-514.88C326.03,-494.56 345.49,-459.93 365,-432 373.62,-419.66 384.07,-406.66 393.17,-395.85"/>
<polygon fill="none" stroke="#333333" stroke-width="1.5" points="395.99,-397.94 399.82,-388.06 390.67,-393.39 395.99,-397.94"/>
</g>
<!-- Revista -->
<g id="node3" class="node">
<title>Revista</title>
<path fill="#cecbf6" stroke="#534ab7" stroke-width="1.2" d="M431,-551C431,-551 399,-551 399,-551 393,-551 387,-545 387,-539 387,-539 387,-527 387,-527 387,-521 393,-515 399,-515 399,-515 431,-515 431,-515 437,-515 443,-521 443,-527 443,-527 443,-539 443,-539 443,-545 437,-551 431,-551"/>
<text text-anchor="start" x="395" y="-535.2" font-family="Arial" font-weight="bold" font-size="11.00" fill="#26215c">Revista</text>
<text text-anchor="start" x="404" y="-525.8" font-family="Arial" font-size="9.00" fill="#26215c">ISSN</text>
</g>
<!-- Revista&#45;&gt;RecursoBibliografico -->
<g id="edge2" class="edge">
<title>Revista&#45;&gt;RecursoBibliografico</title>
<path fill="none" stroke="#333333" stroke-width="1.5" d="M415,-514.77C415,-486.93 415,-431.81 415,-398.5"/>
<polygon fill="none" stroke="#333333" stroke-width="1.5" points="418.5,-398.11 415,-388.11 411.5,-398.11 418.5,-398.11"/>
</g>
<!-- Tesis -->
<g id="node4" class="node">
<title>Tesis</title>
<path fill="#cecbf6" stroke="#534ab7" stroke-width="1.2" d="M561.5,-551C561.5,-551 498.5,-551 498.5,-551 492.5,-551 486.5,-545 486.5,-539 486.5,-539 486.5,-527 486.5,-527 486.5,-521 492.5,-515 498.5,-515 498.5,-515 561.5,-515 561.5,-515 567.5,-515 573.5,-521 573.5,-527 573.5,-527 573.5,-539 573.5,-539 573.5,-545 567.5,-551 561.5,-551"/>
<text text-anchor="start" x="516" y="-535.2" font-family="Arial" font-weight="bold" font-size="11.00" fill="#26215c">Tesis</text>
<text text-anchor="start" x="494.5" y="-525.8" font-family="Arial" font-size="9.00" fill="#26215c">Trabajo de grado</text>
</g>
<!-- Tesis&#45;&gt;RecursoBibliografico -->
<g id="edge3" class="edge">
<title>Tesis&#45;&gt;RecursoBibliografico</title>
<path fill="none" stroke="#333333" stroke-width="1.5" d="M519.26,-514.68C506.58,-494.48 484.59,-460.24 464,-432 455.13,-419.84 444.77,-406.79 435.86,-395.88"/>
<polygon fill="none" stroke="#333333" stroke-width="1.5" points="438.44,-393.51 429.38,-388.02 433.04,-397.96 438.44,-393.51"/>
</g>
<!-- Persona -->
<g id="node5" class="node">
<title>Persona</title>
<path fill="#e1f5ee" stroke="#0f6e56" stroke-width="1.2" d="M94,-160C94,-160 12,-160 12,-160 6,-160 0,-154 0,-148 0,-148 0,-136 0,-136 0,-130 6,-124 12,-124 12,-124 94,-124 94,-124 100,-124 106,-130 106,-136 106,-136 106,-148 106,-148 106,-154 100,-160 94,-160"/>
<text text-anchor="start" x="31" y="-144.2" font-family="Arial" font-weight="bold" font-size="11.00" fill="#04342c">Persona</text>
<text text-anchor="start" x="8" y="-134.8" font-family="Arial" font-style="italic" font-size="9.00" fill="#04342c">nombre, nacionalidad</text>
</g>
<!-- Autor&#45;&gt;Persona -->
<g id="edge4" class="edge">
<title>Autor&#45;&gt;Persona</title>
<path fill="none" stroke="#333333" stroke-width="1.5" d="M37.73,-237.99C40.63,-219.98 45.24,-191.29 48.64,-170.15"/>
<polygon fill="none" stroke="#333333" stroke-width="1.5" points="52.11,-170.6 50.24,-160.17 45.2,-169.49 52.11,-170.6"/>
</g>
<!-- Editor&#45;&gt;Persona -->
<g id="edge5" class="edge">
<title>Editor&#45;&gt;Persona</title>
<path fill="none" stroke="#333333" stroke-width="1.5" d="M122.22,-237.8C115.04,-229.27 106.39,-218.73 99,-209 89.08,-195.93 78.57,-180.96 70.11,-168.58"/>
<polygon fill="none" stroke="#333333" stroke-width="1.5" points="72.86,-166.4 64.35,-160.09 67.07,-170.33 72.86,-166.4"/>
</g>
<!-- Usuario -->
<g id="node8" class="node">
<title>Usuario</title>
<path fill="#9fe1cb" stroke="#0f6e56" stroke-width="1.2" d="M288,-274C288,-274 222,-274 222,-274 216,-274 210,-268 210,-262 210,-262 210,-250 210,-250 210,-244 216,-238 222,-238 222,-238 288,-238 288,-238 294,-238 300,-244 300,-250 300,-250 300,-262 300,-262 300,-268 294,-274 288,-274"/>
<text text-anchor="start" x="234" y="-258.2" font-family="Arial" font-weight="bold" font-size="11.00" fill="#04342c">Usuario</text>
<text text-anchor="start" x="218" y="-248.8" font-family="Arial" font-size="9.00" fill="#04342c">correo, préstamos</text>
</g>
<!-- Usuario&#45;&gt;Persona -->
<g id="edge6" class="edge">
<title>Usuario&#45;&gt;Persona</title>
<path fill="none" stroke="#333333" stroke-width="1.5" d="M209.79,-237.93C190.35,-229.98 167.63,-219.89 148,-209 125.36,-196.44 101.44,-179.79 83.26,-166.36"/>
<polygon fill="none" stroke="#333333" stroke-width="1.5" points="84.93,-163.24 74.83,-160.06 80.74,-168.85 84.93,-163.24"/>
</g>
<!-- Prestamo -->
<g id="node13" class="node">
<title>Prestamo</title>
<path fill="#f0997b" stroke="#993c1d" stroke-width="1.2" d="M458.5,-160C458.5,-160 411.5,-160 411.5,-160 405.5,-160 399.5,-154 399.5,-148 399.5,-148 399.5,-136 399.5,-136 399.5,-130 405.5,-124 411.5,-124 411.5,-124 458.5,-124 458.5,-124 464.5,-124 470.5,-130 470.5,-136 470.5,-136 470.5,-148 470.5,-148 470.5,-154 464.5,-160 458.5,-160"/>
<text text-anchor="start" x="409.5" y="-144.2" font-family="Arial" font-weight="bold" font-size="11.00" fill="#4a1b0c">Préstamo</text>
<text text-anchor="start" x="407.5" y="-134.8" font-family="Arial" font-size="9.00" fill="#4a1b0c">fechas, multa</text>
</g>
<!-- Usuario&#45;&gt;Prestamo -->
<g id="edge16" class="edge">
<title>Usuario&#45;&gt;Prestamo</title>
<path fill="none" stroke="#0f6e56" stroke-dasharray="5,2" d="M300.21,-246.68C327.63,-239.95 362.18,-228.32 388,-209 402,-198.52 413.49,-182.66 421.6,-169.11"/>
<polygon fill="#0f6e56" stroke="#0f6e56" points="426.67,-160.19 425.64,-171.11 424.19,-164.54 421.72,-168.89 421.72,-168.89 421.72,-168.89 424.19,-164.54 417.81,-166.66 426.67,-160.19 426.67,-160.19"/>
<text text-anchor="middle" x="441.5" y="-196.8" font-family="Arial" font-size="9.00" fill="#0f6e56"> &#160;tienePrestamo &#160;</text>
</g>
<!-- Estudiante -->
<g id="node9" class="node">
<title>Estudiante</title>
<path fill="#5dcaa5" stroke="#0f6e56" stroke-width="1.2" d="M175.5,-36C175.5,-36 116.5,-36 116.5,-36 110.5,-36 104.5,-30 104.5,-24 104.5,-24 104.5,-12 104.5,-12 104.5,-6 110.5,0 116.5,0 116.5,0 175.5,0 175.5,0 181.5,0 187.5,-6 187.5,-12 187.5,-12 187.5,-24 187.5,-24 187.5,-30 181.5,-36 175.5,-36"/>
<text text-anchor="start" x="117.5" y="-20.2" font-family="Arial" font-weight="bold" font-size="11.00" fill="#04342c">Estudiante</text>
<text text-anchor="start" x="112.5" y="-10.8" font-family="Arial" font-size="9.00" fill="#04342c">matrícula, máx 3</text>
</g>
<!-- Estudiante&#45;&gt;Usuario -->
<g id="edge7" class="edge">
<title>Estudiante&#45;&gt;Usuario</title>
<path fill="none" stroke="#333333" stroke-width="1.5" d="M153.88,-36.06C172.65,-76.69 220.1,-179.44 242.69,-228.34"/>
<polygon fill="none" stroke="#333333" stroke-width="1.5" points="239.61,-230.04 246.98,-237.65 245.97,-227.1 239.61,-230.04"/>
</g>
<!-- Profesor -->
<g id="node10" class="node">
<title>Profesor</title>
<path fill="#5dcaa5" stroke="#0f6e56" stroke-width="1.2" d="M325,-36C325,-36 243,-36 243,-36 237,-36 231,-30 231,-24 231,-24 231,-12 231,-12 231,-6 237,0 243,0 243,0 325,0 325,0 331,0 337,-6 337,-12 337,-12 337,-24 337,-24 337,-30 331,-36 325,-36"/>
<text text-anchor="start" x="261" y="-20.2" font-family="Arial" font-weight="bold" font-size="11.00" fill="#04342c">Profesor</text>
<text text-anchor="start" x="239" y="-10.8" font-family="Arial" font-size="9.00" fill="#04342c">numEmpleado, máx 5</text>
</g>
<!-- Profesor&#45;&gt;Usuario -->
<g id="edge8" class="edge">
<title>Profesor&#45;&gt;Usuario</title>
<path fill="none" stroke="#333333" stroke-width="1.5" d="M281.9,-36.06C276.94,-76.44 264.44,-178.16 258.39,-227.42"/>
<polygon fill="none" stroke="#333333" stroke-width="1.5" points="254.88,-227.29 257.13,-237.65 261.83,-228.15 254.88,-227.29"/>
</g>
<!-- Biblioteca -->
<g id="node15" class="node">
<title>Biblioteca</title>
<path fill="#fbeaf0" stroke="#993556" stroke-width="1.2" d="M695,-160C695,-160 629,-160 629,-160 623,-160 617,-154 617,-148 617,-148 617,-136 617,-136 617,-130 623,-124 629,-124 629,-124 695,-124 695,-124 701,-124 707,-130 707,-136 707,-136 707,-148 707,-148 707,-154 701,-160 695,-160"/>
<text text-anchor="start" x="635.5" y="-144.2" font-family="Arial" font-weight="bold" font-size="11.00" fill="#4b1528">Biblioteca</text>
<text text-anchor="start" x="625" y="-134.8" font-family="Arial" font-size="9.00" fill="#4b1528">nombre, dirección</text>
</g>
<!-- CopiaFisica&#45;&gt;Biblioteca -->
<g id="edge18" class="edge">
<title>CopiaFisica&#45;&gt;Biblioteca</title>
<path fill="none" stroke="#993556" stroke-dasharray="5,2" d="M567.45,-36.13C586.25,-56.98 618.13,-92.35 639.62,-116.18"/>
<polygon fill="#993556" stroke="#993556" points="646.47,-123.78 636.43,-119.37 643.12,-120.07 639.78,-116.35 639.78,-116.35 639.78,-116.35 643.12,-120.07 643.12,-113.34 646.47,-123.78 646.47,-123.78"/>
<text text-anchor="middle" x="647" y="-87.8" font-family="Arial" font-size="9.00" fill="#993556"> &#160;ubicadaEn &#160;</text>
<text text-anchor="middle" x="647" y="-77.8" font-family="Arial" font-size="9.00" fill="#993556"> &#160;↔ alberga &#160;</text>
<text text-anchor="middle" x="647" y="-67.8" font-family="Arial" font-size="9.00" fill="#993556"> &#160;[functional] &#160;</text>
</g>
<!-- Prestamo&#45;&gt;Usuario -->
<g id="edge14" class="edge">
<title>Prestamo&#45;&gt;Usuario</title>
<path fill="none" stroke="#0f6e56" stroke-dasharray="5,2" d="M399.46,-153C375.74,-160.66 344.53,-172.69 320,-189 302.98,-200.31 286.85,-216.66 274.91,-230.25"/>
<polygon fill="#0f6e56" stroke="#0f6e56" points="268.39,-237.87 271.47,-227.35 271.64,-234.07 274.89,-230.27 274.89,-230.27 274.89,-230.27 271.64,-234.07 278.31,-233.2 268.39,-237.87 268.39,-237.87"/>
<text text-anchor="middle" x="351" y="-201.8" font-family="Arial" font-size="9.00" fill="#0f6e56"> &#160;realizadoPor &#160;</text>
<text text-anchor="middle" x="351" y="-191.8" font-family="Arial" font-size="9.00" fill="#0f6e56"> &#160;[functional] &#160;</text>
</g>
<!-- Prestamo&#45;&gt;CopiaFisica -->
<g id="edge15" class="edge">
<title>Prestamo&#45;&gt;CopiaFisica</title>
<path fill="none" stroke="#993c1d" stroke-dasharray="5,2" d="M438.45,-123.78C442.55,-107.07 450.83,-81.83 466,-65 474.68,-55.37 485.85,-47.39 497.26,-40.93"/>
<polygon fill="#993c1d" stroke="#993c1d" points="506.41,-36.07 499.69,-44.74 501.99,-38.42 497.58,-40.76 497.58,-40.76 497.58,-40.76 501.99,-38.42 495.47,-36.79 506.41,-36.07 506.41,-36.07"/>
<text text-anchor="middle" x="493" y="-82.8" font-family="Arial" font-size="9.00" fill="#993c1d"> &#160;involucra &#160;</text>
<text text-anchor="middle" x="493" y="-72.8" font-family="Arial" font-size="9.00" fill="#993c1d"> &#160;[functional] &#160;</text>
</g>
<!-- Categoria&#45;&gt;Categoria -->
<g id="edge17" class="edge">
<title>Categoria&#45;&gt;Categoria</title>
<path fill="none" stroke="#993556" stroke-dasharray="5,2" d="M839.57,-152.16C862.2,-153.64 882.5,-150.26 882.5,-142 882.5,-135 867.92,-131.5 849.69,-131.5"/>
<polygon fill="#993556" stroke="#993556" points="839.57,-131.84 849.41,-127.01 844.57,-131.67 849.57,-131.5 849.57,-131.5 849.57,-131.5 844.57,-131.67 849.72,-136 839.57,-131.84 839.57,-131.84"/>
<text text-anchor="middle" x="925" y="-144.8" font-family="Arial" font-size="9.00" fill="#993556"> &#160;tieneSubcategoria &#160;</text>
<text text-anchor="middle" x="925" y="-134.8" font-family="Arial" font-size="9.00" fill="#993556"> &#160;[transitive] &#160;</text>
</g>
<!-- key1 -->
<g id="node16" class="node">
<title>key1</title>
<path fill="#fafafa" stroke="transparent" stroke-width="1.2" d="M801,-619C801,-619 629,-619 629,-619 623,-619 617,-613 617,-607 617,-607 617,-459 617,-459 617,-453 623,-447 629,-447 629,-447 801,-447 801,-447 807,-447 813,-453 813,-459 813,-459 813,-607 813,-607 813,-613 807,-619 801,-619"/>
<text text-anchor="start" x="631" y="-601" font-family="Arial" font-size="10.00" fill="#333333">───▷</text>
<text text-anchor="start" x="667" y="-601" font-family="Arial" font-size="10.00" fill="#333333">rdfs:subClassOf</text>
<text text-anchor="start" x="633.5" y="-582" font-family="Arial" font-size="10.00" fill="#0f6e56">&#45; &#45; &#45;▶</text>
<text text-anchor="start" x="667" y="-582" font-family="Arial" font-size="10.00" fill="#0f6e56">Object Property</text>
<text text-anchor="start" x="633.5" y="-563" font-family="Arial" font-size="10.00" fill="#993c1d">&#45; &#45; &#45;▶</text>
<text text-anchor="start" x="667" y="-563" font-family="Arial" font-size="10.00" fill="#993c1d">Object Property (operativa)</text>
<text text-anchor="start" x="633.5" y="-544" font-family="Arial" font-size="10.00" fill="#993556">&#45; &#45; &#45;▶</text>
<text text-anchor="start" x="667" y="-544" font-family="Arial" font-size="10.00" fill="#993556">Object Property (clasificación)</text>
<polygon fill="#eeedfe" stroke="transparent" points="629,-518 629,-535 661,-535 661,-518 629,-518"/>
<polygon fill="none" stroke="#534ab7" points="629,-518 629,-535 661,-535 661,-518 629,-518"/>
<text text-anchor="start" x="641.5" y="-524" font-family="Arial" font-size="10.00"> &#160;</text>
<text text-anchor="start" x="667" y="-524" font-family="Arial" font-size="10.00">Recurso Bibliográfico</text>
<polygon fill="#e1f5ee" stroke="transparent" points="629,-497 629,-514 661,-514 661,-497 629,-497"/>
<polygon fill="none" stroke="#0f6e56" points="629,-497 629,-514 661,-514 661,-497 629,-497"/>
<text text-anchor="start" x="641.5" y="-503" font-family="Arial" font-size="10.00"> &#160;</text>
<text text-anchor="start" x="667" y="-503" font-family="Arial" font-size="10.00">Persona y roles</text>
<polygon fill="#faece7" stroke="transparent" points="629,-476 629,-493 661,-493 661,-476 629,-476"/>
<polygon fill="none" stroke="#993c1d" points="629,-476 629,-493 661,-493 661,-476 629,-476"/>
<text text-anchor="start" x="641.5" y="-482" font-family="Arial" font-size="10.00"> &#160;</text>
<text text-anchor="start" x="667" y="-482" font-family="Arial" font-size="10.00">Entidades operativas</text>
<polygon fill="#fbeaf0" stroke="transparent" points="629,-455 629,-472 661,-472 661,-455 629,-455"/>
<polygon fill="none" stroke="#993556" points="629,-455 629,-472 661,-472 661,-455 629,-455"/>
<text text-anchor="start" x="641.5" y="-461" font-family="Arial" font-size="10.00"> &#160;</text>
<text text-anchor="start" x="667" y="-461" font-family="Arial" font-size="10.00">Clasificación / ubicación</text>
</g>
</g>
</svg>
