<?xml version="1.0" encoding="UTF-8" standalone="no"?>
<!DOCTYPE svg PUBLIC "-//W3C//DTD SVG 1.1//EN"
 "http://www.w3.org/Graphics/SVG/1.1/DTD/svg11.dtd">
<!-- Generated by graphviz version 2.43.0 (0)
 -->
<!-- Title: OntologiaGeografiaMexico Pages: 1 -->
<svg width="1155pt" height="447pt"
 viewBox="0.00 0.00 1154.50 447.00" xmlns="http://www.w3.org/2000/svg" xmlns:xlink="http://www.w3.org/1999/xlink">
<g id="graph0" class="graph" transform="scale(1 1) rotate(0) translate(4 443)">
<title>OntologiaGeografiaMexico</title>
<polygon fill="white" stroke="transparent" points="-4,4 -4,-443 1150.5,-443 1150.5,4 -4,4"/>
<text text-anchor="middle" x="573.25" y="-422.2" font-family="Arial" font-size="16.00" fill="#1f4e79">Ontologia de Geografia de Mexico</text>
<text text-anchor="middle" x="573.25" y="-404.2" font-family="Arial" font-size="16.00" fill="#1f4e79">Jerarquia de Clases</text>
<g id="clust3" class="cluster">
<title>cluster_leyenda</title>
<polygon fill="none" stroke="#cccccc" stroke-dasharray="5,2" points="1030.5,-8 1030.5,-387 1138.5,-387 1138.5,-8 1030.5,-8"/>
<text text-anchor="middle" x="1084.5" y="-375" font-family="Arial" font-size="10.00" fill="#1f4e79">Leyenda</text>
</g>
<!-- EntidadGeografica -->
<g id="node1" class="node">
<title>EntidadGeografica</title>
<path fill="#1f4e79" stroke="black" d="M526.5,-361C526.5,-361 432.5,-361 432.5,-361 426.5,-361 420.5,-355 420.5,-349 420.5,-349 420.5,-335 420.5,-335 420.5,-329 426.5,-323 432.5,-323 432.5,-323 526.5,-323 526.5,-323 532.5,-323 538.5,-329 538.5,-335 538.5,-335 538.5,-349 538.5,-349 538.5,-355 532.5,-361 526.5,-361"/>
<text text-anchor="middle" x="479.5" y="-345.2" font-family="Arial" font-size="11.00" fill="white">EntidadGeografica</text>
<text text-anchor="middle" x="479.5" y="-333.2" font-family="Arial" font-size="11.00" fill="white">(Clase raiz)</text>
</g>
<!-- Pais -->
<g id="node2" class="node">
<title>Pais</title>
<path fill="#2e75b6" stroke="black" d="M107,-255C107,-255 12,-255 12,-255 6,-255 0,-249 0,-243 0,-243 0,-229 0,-229 0,-223 6,-217 12,-217 12,-217 107,-217 107,-217 113,-217 119,-223 119,-229 119,-229 119,-243 119,-243 119,-249 113,-255 107,-255"/>
<text text-anchor="middle" x="59.5" y="-239.2" font-family="Arial" font-size="11.00" fill="white">Pais</text>
<text text-anchor="middle" x="59.5" y="-227.2" font-family="Arial" font-size="11.00" fill="white">Territorio soberano</text>
</g>
<!-- EntidadGeografica&#45;&gt;Pais -->
<g id="edge1" class="edge">
<title>EntidadGeografica&#45;&gt;Pais</title>
<path fill="none" stroke="#666666" d="M420.22,-348C304.44,-348 59.5,-348 59.5,-348 59.5,-348 59.5,-265.25 59.5,-265.25"/>
<polygon fill="none" stroke="#666666" points="63,-265.25 59.5,-255.25 56,-265.25 63,-265.25"/>
<text text-anchor="middle" x="92" y="-286.8" font-family="Arial" font-size="9.00">rdfs:subClassOf</text>
</g>
<!-- Estado -->
<g id="node3" class="node">
<title>Estado</title>
<path fill="#2e75b6" stroke="black" d="M266.5,-255C266.5,-255 174.5,-255 174.5,-255 168.5,-255 162.5,-249 162.5,-243 162.5,-243 162.5,-229 162.5,-229 162.5,-223 168.5,-217 174.5,-217 174.5,-217 266.5,-217 266.5,-217 272.5,-217 278.5,-223 278.5,-229 278.5,-229 278.5,-243 278.5,-243 278.5,-249 272.5,-255 266.5,-255"/>
<text text-anchor="middle" x="220.5" y="-239.2" font-family="Arial" font-size="11.00" fill="white">Estado</text>
<text text-anchor="middle" x="220.5" y="-227.2" font-family="Arial" font-size="11.00" fill="white">Entidad federativa</text>
</g>
<!-- EntidadGeografica&#45;&gt;Estado -->
<g id="edge2" class="edge">
<title>EntidadGeografica&#45;&gt;Estado</title>
<path fill="none" stroke="#666666" d="M420.4,-335C343.96,-335 220.5,-335 220.5,-335 220.5,-335 220.5,-265.09 220.5,-265.09"/>
<polygon fill="none" stroke="#666666" points="224,-265.09 220.5,-255.09 217,-265.09 224,-265.09"/>
<text text-anchor="middle" x="253" y="-286.8" font-family="Arial" font-size="9.00">rdfs:subClassOf</text>
</g>
<!-- Ciudad -->
<g id="node4" class="node">
<title>Ciudad</title>
<path fill="#2e75b6" stroke="black" d="M441,-255C441,-255 334,-255 334,-255 328,-255 322,-249 322,-243 322,-243 322,-229 322,-229 322,-223 328,-217 334,-217 334,-217 441,-217 441,-217 447,-217 453,-223 453,-229 453,-229 453,-243 453,-243 453,-249 447,-255 441,-255"/>
<text text-anchor="middle" x="387.5" y="-239.2" font-family="Arial" font-size="11.00" fill="white">Ciudad</text>
<text text-anchor="middle" x="387.5" y="-227.2" font-family="Arial" font-size="11.00" fill="white">Asentamiento urbano</text>
</g>
<!-- EntidadGeografica&#45;&gt;Ciudad -->
<g id="edge3" class="edge">
<title>EntidadGeografica&#45;&gt;Ciudad</title>
<path fill="none" stroke="#666666" d="M436.75,-322.56C436.75,-322.56 436.75,-265.32 436.75,-265.32"/>
<polygon fill="none" stroke="#666666" points="440.25,-265.32 436.75,-255.32 433.25,-265.32 440.25,-265.32"/>
<text text-anchor="middle" x="432" y="-286.8" font-family="Arial" font-size="9.00">rdfs:subClassOf</text>
</g>
<!-- Frontera -->
<g id="node5" class="node">
<title>Frontera</title>
<path fill="#2e75b6" stroke="black" d="M586.5,-255C586.5,-255 508.5,-255 508.5,-255 502.5,-255 496.5,-249 496.5,-243 496.5,-243 496.5,-229 496.5,-229 496.5,-223 502.5,-217 508.5,-217 508.5,-217 586.5,-217 586.5,-217 592.5,-217 598.5,-223 598.5,-229 598.5,-229 598.5,-243 598.5,-243 598.5,-249 592.5,-255 586.5,-255"/>
<text text-anchor="middle" x="547.5" y="-239.2" font-family="Arial" font-size="11.00" fill="white">Frontera</text>
<text text-anchor="middle" x="547.5" y="-227.2" font-family="Arial" font-size="11.00" fill="white">Limite territorial</text>
</g>
<!-- EntidadGeografica&#45;&gt;Frontera -->
<g id="edge4" class="edge">
<title>EntidadGeografica&#45;&gt;Frontera</title>
<path fill="none" stroke="#666666" d="M510.5,-322.56C510.5,-322.56 510.5,-265.32 510.5,-265.32"/>
<polygon fill="none" stroke="#666666" points="514,-265.32 510.5,-255.32 507,-265.32 514,-265.32"/>
<text text-anchor="middle" x="557" y="-286.8" font-family="Arial" font-size="9.00">rdfs:subClassOf</text>
</g>
<!-- RegionGeografica -->
<g id="node6" class="node">
<title>RegionGeografica</title>
<path fill="#2e75b6" stroke="black" d="M819.5,-255C819.5,-255 653.5,-255 653.5,-255 647.5,-255 641.5,-249 641.5,-243 641.5,-243 641.5,-229 641.5,-229 641.5,-223 647.5,-217 653.5,-217 653.5,-217 819.5,-217 819.5,-217 825.5,-217 831.5,-223 831.5,-229 831.5,-229 831.5,-243 831.5,-243 831.5,-249 825.5,-255 819.5,-255"/>
<text text-anchor="middle" x="736.5" y="-239.2" font-family="Arial" font-size="11.00" fill="white">RegionGeografica</text>
<text text-anchor="middle" x="736.5" y="-227.2" font-family="Arial" font-size="11.00" fill="white">Area con caracteristicas comunes</text>
</g>
<!-- EntidadGeografica&#45;&gt;RegionGeografica -->
<g id="edge5" class="edge">
<title>EntidadGeografica&#45;&gt;RegionGeografica</title>
<path fill="none" stroke="#666666" d="M538.63,-342C598.72,-342 683,-342 683,-342 683,-342 683,-265.44 683,-265.44"/>
<polygon fill="none" stroke="#666666" points="686.5,-265.44 683,-255.44 679.5,-265.44 686.5,-265.44"/>
<text text-anchor="middle" x="769" y="-286.8" font-family="Arial" font-size="9.00">rdfs:subClassOf</text>
</g>
<!-- Municipio -->
<g id="node7" class="node">
<title>Municipio</title>
<path fill="#2e75b6" stroke="black" d="M998,-255C998,-255 887,-255 887,-255 881,-255 875,-249 875,-243 875,-243 875,-229 875,-229 875,-223 881,-217 887,-217 887,-217 998,-217 998,-217 1004,-217 1010,-223 1010,-229 1010,-229 1010,-243 1010,-243 1010,-249 1004,-255 998,-255"/>
<text text-anchor="middle" x="942.5" y="-239.2" font-family="Arial" font-size="11.00" fill="white">Municipio</text>
<text text-anchor="middle" x="942.5" y="-227.2" font-family="Arial" font-size="11.00" fill="white">Division administrativa</text>
</g>
<!-- EntidadGeografica&#45;&gt;Municipio -->
<g id="edge6" class="edge">
<title>EntidadGeografica&#45;&gt;Municipio</title>
<path fill="none" stroke="#666666" d="M524.5,-322.87C524.5,-307.68 524.5,-289 524.5,-289 524.5,-289 942.5,-289 942.5,-289 942.5,-289 942.5,-265.13 942.5,-265.13"/>
<polygon fill="none" stroke="#666666" points="946,-265.13 942.5,-255.13 939,-265.13 946,-265.13"/>
<text text-anchor="middle" x="975" y="-286.8" font-family="Arial" font-size="9.00">rdfs:subClassOf</text>
</g>
<!-- CapitalEstatal -->
<g id="node9" class="node">
<title>CapitalEstatal</title>
<path fill="#5b9bd5" stroke="black" d="M256.5,-149C256.5,-149 146.5,-149 146.5,-149 140.5,-149 134.5,-143 134.5,-137 134.5,-137 134.5,-123 134.5,-123 134.5,-117 140.5,-111 146.5,-111 146.5,-111 256.5,-111 256.5,-111 262.5,-111 268.5,-117 268.5,-123 268.5,-123 268.5,-137 268.5,-137 268.5,-143 262.5,-149 256.5,-149"/>
<text text-anchor="middle" x="201.5" y="-133.2" font-family="Arial" font-size="11.00" fill="white">CapitalEstatal</text>
<text text-anchor="middle" x="201.5" y="-121.2" font-family="Arial" font-size="11.00" fill="white">Sede gobierno estatal</text>
</g>
<!-- Ciudad&#45;&gt;CapitalEstatal -->
<g id="edge7" class="edge">
<title>Ciudad&#45;&gt;CapitalEstatal</title>
<path fill="none" stroke="#666666" d="M321.93,-236C306.91,-236 295.25,-236 295.25,-236 295.25,-236 295.25,-130 295.25,-130 295.25,-130 278.64,-130 278.64,-130"/>
<polygon fill="none" stroke="#666666" points="278.64,-126.5 268.64,-130 278.64,-133.5 278.64,-126.5"/>
<text text-anchor="middle" x="234" y="-180.8" font-family="Arial" font-size="9.00">rdfs:subClassOf</text>
</g>
<!-- CapitalNacional -->
<g id="node10" class="node">
<title>CapitalNacional</title>
<path fill="#5b9bd5" stroke="black" d="M435,-149C435,-149 324,-149 324,-149 318,-149 312,-143 312,-137 312,-137 312,-123 312,-123 312,-117 318,-111 324,-111 324,-111 435,-111 435,-111 441,-111 447,-117 447,-123 447,-123 447,-137 447,-137 447,-143 441,-149 435,-149"/>
<text text-anchor="middle" x="379.5" y="-133.2" font-family="Arial" font-size="11.00" fill="white">CapitalNacional</text>
<text text-anchor="middle" x="379.5" y="-121.2" font-family="Arial" font-size="11.00" fill="white">Sede gobierno federal</text>
</g>
<!-- Ciudad&#45;&gt;CapitalNacional -->
<g id="edge8" class="edge">
<title>Ciudad&#45;&gt;CapitalNacional</title>
<path fill="none" stroke="#666666" d="M384.5,-216.56C384.5,-216.56 384.5,-159.32 384.5,-159.32"/>
<polygon fill="none" stroke="#666666" points="388,-159.32 384.5,-149.32 381,-159.32 388,-159.32"/>
<text text-anchor="middle" x="412" y="-180.8" font-family="Arial" font-size="9.00">rdfs:subClassOf</text>
</g>
<!-- FronteraInternacional -->
<g id="node11" class="node">
<title>FronteraInternacional</title>
<path fill="#5b9bd5" stroke="black" d="M609,-149C609,-149 502,-149 502,-149 496,-149 490,-143 490,-137 490,-137 490,-123 490,-123 490,-117 496,-111 502,-111 502,-111 609,-111 609,-111 615,-111 621,-117 621,-123 621,-123 621,-137 621,-137 621,-143 615,-149 609,-149"/>
<text text-anchor="middle" x="555.5" y="-133.2" font-family="Arial" font-size="11.00" fill="white">FronteraInternacional</text>
<text text-anchor="middle" x="555.5" y="-121.2" font-family="Arial" font-size="11.00" fill="white">Limite entre paises</text>
</g>
<!-- Frontera&#45;&gt;FronteraInternacional -->
<g id="edge9" class="edge">
<title>Frontera&#45;&gt;FronteraInternacional</title>
<path fill="none" stroke="#666666" d="M547.5,-216.56C547.5,-216.56 547.5,-159.32 547.5,-159.32"/>
<polygon fill="none" stroke="#666666" points="551,-159.32 547.5,-149.32 544,-159.32 551,-159.32"/>
<text text-anchor="middle" x="588" y="-180.8" font-family="Arial" font-size="9.00">rdfs:subClassOf</text>
</g>
<!-- FronteraEstatal -->
<g id="node12" class="node">
<title>FronteraEstatal</title>
<path fill="#5b9bd5" stroke="black" d="M777,-149C777,-149 676,-149 676,-149 670,-149 664,-143 664,-137 664,-137 664,-123 664,-123 664,-117 670,-111 676,-111 676,-111 777,-111 777,-111 783,-111 789,-117 789,-123 789,-123 789,-137 789,-137 789,-143 783,-149 777,-149"/>
<text text-anchor="middle" x="726.5" y="-133.2" font-family="Arial" font-size="11.00" fill="white">FronteraEstatal</text>
<text text-anchor="middle" x="726.5" y="-121.2" font-family="Arial" font-size="11.00" fill="white">Limite entre estados</text>
</g>
<!-- Frontera&#45;&gt;FronteraEstatal -->
<g id="edge10" class="edge">
<title>Frontera&#45;&gt;FronteraEstatal</title>
<path fill="none" stroke="#666666" d="M598.63,-236C616.07,-236 631.25,-236 631.25,-236 631.25,-236 631.25,-130 631.25,-130 631.25,-130 653.76,-130 653.76,-130"/>
<polygon fill="none" stroke="#666666" points="653.76,-133.5 663.76,-130 653.76,-126.5 653.76,-133.5"/>
<text text-anchor="middle" x="759" y="-180.8" font-family="Arial" font-size="9.00">rdfs:subClassOf</text>
</g>
<!-- CuerpoDeAgua -->
<g id="node8" class="node">
<title>CuerpoDeAgua</title>
<path fill="#00b0f0" stroke="black" d="M858.5,-361C858.5,-361 736.5,-361 736.5,-361 730.5,-361 724.5,-355 724.5,-349 724.5,-349 724.5,-335 724.5,-335 724.5,-329 730.5,-323 736.5,-323 736.5,-323 858.5,-323 858.5,-323 864.5,-323 870.5,-329 870.5,-335 870.5,-335 870.5,-349 870.5,-349 870.5,-355 864.5,-361 858.5,-361"/>
<text text-anchor="middle" x="797.5" y="-345.2" font-family="Arial" font-size="11.00" fill="white">CuerpoDeAgua</text>
<text text-anchor="middle" x="797.5" y="-333.2" font-family="Arial" font-size="11.00" fill="white">Oceano, mar, golfo, lago</text>
</g>
<!-- ley_raiz -->
<g id="node13" class="node">
<title>ley_raiz</title>
<path fill="#1f4e79" stroke="black" d="M1111,-360C1111,-360 1058,-360 1058,-360 1052,-360 1046,-354 1046,-348 1046,-348 1046,-336 1046,-336 1046,-330 1052,-324 1058,-324 1058,-324 1111,-324 1111,-324 1117,-324 1123,-330 1123,-336 1123,-336 1123,-348 1123,-348 1123,-354 1117,-360 1111,-360"/>
<text text-anchor="middle" x="1084.5" y="-339.2" font-family="Arial" font-size="11.00" fill="white">Clase raiz</text>
</g>
<!-- ley_n1 -->
<g id="node14" class="node">
<title>ley_n1</title>
<path fill="#2e75b6" stroke="black" d="M1103.5,-254C1103.5,-254 1065.5,-254 1065.5,-254 1059.5,-254 1053.5,-248 1053.5,-242 1053.5,-242 1053.5,-230 1053.5,-230 1053.5,-224 1059.5,-218 1065.5,-218 1065.5,-218 1103.5,-218 1103.5,-218 1109.5,-218 1115.5,-224 1115.5,-230 1115.5,-230 1115.5,-242 1115.5,-242 1115.5,-248 1109.5,-254 1103.5,-254"/>
<text text-anchor="middle" x="1084.5" y="-233.2" font-family="Arial" font-size="11.00" fill="white">Nivel 1</text>
</g>
<!-- ley_raiz&#45;&gt;ley_n1 -->
<!-- ley_n2 -->
<g id="node15" class="node">
<title>ley_n2</title>
<path fill="#5b9bd5" stroke="black" d="M1103.5,-148C1103.5,-148 1065.5,-148 1065.5,-148 1059.5,-148 1053.5,-142 1053.5,-136 1053.5,-136 1053.5,-124 1053.5,-124 1053.5,-118 1059.5,-112 1065.5,-112 1065.5,-112 1103.5,-112 1103.5,-112 1109.5,-112 1115.5,-118 1115.5,-124 1115.5,-124 1115.5,-136 1115.5,-136 1115.5,-142 1109.5,-148 1103.5,-148"/>
<text text-anchor="middle" x="1084.5" y="-127.2" font-family="Arial" font-size="11.00" fill="white">Nivel 2</text>
</g>
<!-- ley_n1&#45;&gt;ley_n2 -->
<!-- ley_aux -->
<g id="node16" class="node">
<title>ley_aux</title>
<path fill="#00b0f0" stroke="black" d="M1119,-52C1119,-52 1050,-52 1050,-52 1044,-52 1038,-46 1038,-40 1038,-40 1038,-28 1038,-28 1038,-22 1044,-16 1050,-16 1050,-16 1119,-16 1119,-16 1125,-16 1131,-22 1131,-28 1131,-28 1131,-40 1131,-40 1131,-46 1125,-52 1119,-52"/>
<text text-anchor="middle" x="1084.5" y="-31.2" font-family="Arial" font-size="11.00" fill="white">Clase auxiliar</text>
</g>
<!-- ley_n2&#45;&gt;ley_aux -->
</g>
</svg>
