<?xml version="1.0" encoding="UTF-8" standalone="no"?>
<!DOCTYPE svg PUBLIC "-//W3C//DTD SVG 1.1//EN"
 "http://www.w3.org/Graphics/SVG/1.1/DTD/svg11.dtd">
<!-- Generated by graphviz version 2.43.0 (0)
 -->
<!-- Title: Ontologia2 Pages: 1 -->
<svg width="1132pt" height="537pt"
 viewBox="0.00 0.00 1132.00 537.28" xmlns="http://www.w3.org/2000/svg" xmlns:xlink="http://www.w3.org/1999/xlink">
<g id="graph0" class="graph" transform="scale(1 1) rotate(0) translate(36 501.28)">
<title>Ontologia2</title>
<polygon fill="white" stroke="transparent" points="-36,36 -36,-501.28 1096,-501.28 1096,36 -36,36"/>
<text text-anchor="start" x="413" y="-451.08" font-family="Arial" font-weight="bold" font-size="14.00">Ontología 2: Red Semántica de Fred</text>
<g id="clust1" class="cluster">
<title>cluster_legend</title>
<path fill="white" stroke="#cccccc" d="M964,-8C964,-8 1040,-8 1040,-8 1046,-8 1052,-14 1052,-20 1052,-20 1052,-422.28 1052,-422.28 1052,-428.28 1046,-434.28 1040,-434.28 1040,-434.28 964,-434.28 964,-434.28 958,-434.28 952,-428.28 952,-422.28 952,-422.28 952,-20 952,-20 952,-14 958,-8 964,-8"/>
<text text-anchor="start" x="982" y="-423.28" font-family="Arial" font-weight="bold" font-size="10.00">Leyenda</text>
</g>
<!-- animal -->
<g id="node1" class="node">
<title>animal</title>
<ellipse fill="#a8d5a2" stroke="#4a8c3f" stroke-width="2" cx="322" cy="-28.73" rx="28.73" ry="18"/>
<text text-anchor="middle" x="322" y="-25.93" font-family="Arial" font-size="11.00">animal</text>
</g>
<!-- cat -->
<g id="node2" class="node">
<title>cat</title>
<ellipse fill="#a8d5a2" stroke="#4a8c3f" stroke-width="2" cx="485" cy="-153.84" rx="27" ry="18"/>
<text text-anchor="middle" x="485" y="-151.04" font-family="Arial" font-size="11.00">cat</text>
</g>
<!-- cat&#45;&gt;animal -->
<g id="edge1" class="edge">
<title>cat&#45;&gt;animal</title>
<path fill="none" stroke="#4a8c3f" stroke-width="2" d="M468.16,-139.46C449.45,-124.66 418.28,-100.21 391,-79.73 377.16,-69.34 361.56,-58 348.7,-48.75"/>
<polygon fill="#4a8c3f" stroke="#4a8c3f" stroke-width="2" points="350.45,-45.7 340.29,-42.72 346.37,-51.39 350.45,-45.7"/>
<text text-anchor="middle" x="430" y="-82.53" font-family="Arial" font-size="9.00" fill="#4a8c3f"> &#160;subClassOf</text>
</g>
<!-- person -->
<g id="node3" class="node">
<title>person</title>
<ellipse fill="#a8d5a2" stroke="#4a8c3f" stroke-width="2" cx="592" cy="-153.84" rx="30.13" ry="18"/>
<text text-anchor="middle" x="592" y="-151.04" font-family="Arial" font-size="11.00">person</text>
</g>
<!-- person&#45;&gt;animal -->
<g id="edge2" class="edge">
<title>person&#45;&gt;animal</title>
<path fill="none" stroke="#4a8c3f" stroke-width="2" d="M572.91,-139.92C549.11,-124.21 506.82,-97.6 468,-79.73 431.49,-62.92 387.62,-48.64 357.57,-39.7"/>
<polygon fill="#4a8c3f" stroke="#4a8c3f" stroke-width="2" points="358.52,-36.33 347.94,-36.87 356.55,-43.04 358.52,-36.33"/>
<text text-anchor="middle" x="512" y="-82.53" font-family="Arial" font-size="9.00" fill="#4a8c3f"> &#160;subClassOf</text>
</g>
<!-- vegetarian -->
<g id="node4" class="node">
<title>vegetarian</title>
<ellipse fill="#c8e6c9" stroke="#2e7d32" stroke-width="2" cx="269" cy="-153.84" rx="73.58" ry="31.23"/>
<text text-anchor="middle" x="269" y="-163.04" font-family="Arial" font-size="11.00">vegetarian</text>
<text text-anchor="middle" x="269" y="-151.04" font-family="Arial" font-size="11.00">───────────</text>
<text text-anchor="middle" x="269" y="-139.04" font-family="Arial" font-size="11.00">no come animales</text>
</g>
<!-- vegetarian&#45;&gt;animal -->
<g id="edge3" class="edge">
<title>vegetarian&#45;&gt;animal</title>
<path fill="none" stroke="#4a8c3f" stroke-width="2" d="M259.31,-122.82C256.56,-109.11 255.78,-93.01 262,-79.73 268.39,-66.09 280.53,-54.88 292.22,-46.55"/>
<polygon fill="#4a8c3f" stroke="#4a8c3f" stroke-width="2" points="294.18,-49.45 300.57,-41 290.3,-43.62 294.18,-49.45"/>
<text text-anchor="middle" x="288" y="-82.53" font-family="Arial" font-size="9.00" fill="#4a8c3f"> &#160;subClassOf</text>
</g>
<!-- vegetarian&#45;&gt;animal -->
<g id="edge17" class="edge">
<title>vegetarian&#45;&gt;animal</title>
<path fill="none" stroke="#c0392b" stroke-width="1.5" stroke-dasharray="1,5" d="M299.17,-125.45C308.31,-115.24 317.21,-102.9 322,-89.73 325.73,-79.49 326.41,-67.59 325.92,-57.11"/>
<polygon fill="#c0392b" stroke="#c0392b" stroke-width="1.5" points="329.38,-56.49 325.05,-46.82 322.4,-57.08 329.38,-56.49"/>
<text text-anchor="middle" x="352" y="-82.53" font-family="Arial" font-size="9.00" fill="#c0392b"> &#160;doesn&#39;t eat &#160;</text>
</g>
<!-- cow -->
<g id="node5" class="node">
<title>cow</title>
<ellipse fill="#a8d5a2" stroke="#4a8c3f" stroke-width="2" cx="260" cy="-280.75" rx="27" ry="18"/>
<text text-anchor="middle" x="260" y="-277.95" font-family="Arial" font-size="11.00">cow</text>
</g>
<!-- cow&#45;&gt;vegetarian -->
<g id="edge4" class="edge">
<title>cow&#45;&gt;vegetarian</title>
<path fill="none" stroke="#4a8c3f" stroke-width="2" d="M240.11,-268.43C222.92,-257.02 202,-238.24 210,-217.95 214.13,-207.48 220.91,-197.73 228.43,-189.17"/>
<polygon fill="#4a8c3f" stroke="#4a8c3f" stroke-width="2" points="231.19,-191.35 235.49,-181.66 226.09,-186.55 231.19,-191.35"/>
<text text-anchor="middle" x="236" y="-220.75" font-family="Arial" font-size="9.00" fill="#4a8c3f"> &#160;subClassOf</text>
</g>
<!-- sheep -->
<g id="node6" class="node">
<title>sheep</title>
<ellipse fill="#c8e6c9" stroke="#2e7d32" stroke-width="2" cx="70" cy="-153.84" rx="70.01" ry="31.23"/>
<text text-anchor="middle" x="70" y="-163.04" font-family="Arial" font-size="11.00">sheep</text>
<text text-anchor="middle" x="70" y="-151.04" font-family="Arial" font-size="11.00">───────────</text>
<text text-anchor="middle" x="70" y="-139.04" font-family="Arial" font-size="11.00">eats only grass</text>
</g>
<!-- sheep&#45;&gt;animal -->
<g id="edge5" class="edge">
<title>sheep&#45;&gt;animal</title>
<path fill="none" stroke="#4a8c3f" stroke-width="2" d="M109.12,-127.86C133.34,-112.92 165.38,-94.12 195,-79.73 225.49,-64.92 261.55,-51.05 287.44,-41.7"/>
<polygon fill="#4a8c3f" stroke="#4a8c3f" stroke-width="2" points="288.94,-44.88 297.18,-38.22 286.58,-38.29 288.94,-44.88"/>
<text text-anchor="middle" x="221" y="-82.53" font-family="Arial" font-size="9.00" fill="#4a8c3f"> &#160;subClassOf</text>
</g>
<!-- grass -->
<g id="node13" class="node">
<title>grass</title>
<ellipse fill="#fdebd0" stroke="#e67e22" stroke-width="2" cx="65" cy="-28.73" rx="27" ry="18"/>
<text text-anchor="middle" x="65" y="-25.93" font-family="Arial" font-size="11.00">grass</text>
</g>
<!-- sheep&#45;&gt;grass -->
<g id="edge16" class="edge">
<title>sheep&#45;&gt;grass</title>
<path fill="none" stroke="#e67e22" stroke-width="1.5" stroke-dasharray="1,5" d="M61.86,-122.75C59.14,-109.61 57.01,-93.97 58,-79.73 58.53,-72.24 59.48,-64.17 60.52,-56.74"/>
<polygon fill="#e67e22" stroke="#e67e22" stroke-width="1.5" points="63.99,-57.2 62.02,-46.79 57.07,-56.16 63.99,-57.2"/>
<text text-anchor="middle" x="79" y="-82.53" font-family="Arial" font-size="9.00" fill="#e67e22"> &#160;eats only</text>
</g>
<!-- man -->
<g id="node7" class="node">
<title>man</title>
<ellipse fill="#a8d5a2" stroke="#4a8c3f" stroke-width="2" cx="726" cy="-280.75" rx="27" ry="18"/>
<text text-anchor="middle" x="726" y="-277.95" font-family="Arial" font-size="11.00">man</text>
</g>
<!-- man&#45;&gt;person -->
<g id="edge6" class="edge">
<title>man&#45;&gt;person</title>
<path fill="none" stroke="#4a8c3f" stroke-width="2" d="M710.89,-265.67C687.59,-243.95 642.72,-202.12 615.26,-176.52"/>
<polygon fill="#4a8c3f" stroke="#4a8c3f" stroke-width="2" points="617.38,-173.71 607.68,-169.45 612.61,-178.83 617.38,-173.71"/>
<text text-anchor="middle" x="694" y="-220.75" font-family="Arial" font-size="9.00" fill="#4a8c3f"> &#160;subClassOf</text>
</g>
<!-- adult -->
<g id="node8" class="node">
<title>adult</title>
<ellipse fill="#d5d5d5" stroke="#666666" stroke-width="1.5" cx="887" cy="-153.84" rx="27" ry="18"/>
<text text-anchor="middle" x="887" y="-151.04" font-family="Arial" font-size="11.00">adult</text>
</g>
<!-- man&#45;&gt;adult -->
<g id="edge7" class="edge">
<title>man&#45;&gt;adult</title>
<path fill="none" stroke="#666666" stroke-width="2" d="M747.41,-269.57C766.34,-260.08 794.23,-244.89 816,-227.95 835.09,-213.1 854.04,-193.27 867.55,-178"/>
<polygon fill="#666666" stroke="#666666" stroke-width="2" points="870.54,-179.9 874.47,-170.06 865.26,-175.3 870.54,-179.9"/>
<text text-anchor="middle" x="853" y="-220.75" font-family="Arial" font-size="9.00" fill="#666666"> &#160;subClassOf</text>
</g>
<!-- male -->
<g id="node9" class="node">
<title>male</title>
<ellipse fill="#d5d5d5" stroke="#666666" stroke-width="1.5" cx="780" cy="-153.84" rx="27" ry="18"/>
<text text-anchor="middle" x="780" y="-151.04" font-family="Arial" font-size="11.00">male</text>
</g>
<!-- man&#45;&gt;male -->
<g id="edge8" class="edge">
<title>man&#45;&gt;male</title>
<path fill="none" stroke="#666666" stroke-width="2" d="M733.17,-263.17C742.25,-242.17 757.99,-205.75 768.7,-181"/>
<polygon fill="#666666" stroke="#666666" stroke-width="2" points="772.05,-182.06 772.8,-171.5 765.62,-179.29 772.05,-182.06"/>
<text text-anchor="middle" x="778" y="-220.75" font-family="Arial" font-size="9.00" fill="#666666"> &#160;subClassOf</text>
</g>
<!-- Fred -->
<g id="node10" class="node">
<title>Fred</title>
<ellipse fill="#f4a6a6" stroke="#c0392b" stroke-width="2.5" cx="509" cy="-394.55" rx="27" ry="18"/>
<text text-anchor="middle" x="509" y="-391.75" font-family="Arial" font-size="11.00">Fred</text>
</g>
<!-- Fred&#45;&gt;cow -->
<g id="edge10" class="edge">
<title>Fred&#45;&gt;cow</title>
<path fill="none" stroke="#888888" stroke-dasharray="5,2" d="M486.91,-383.63C442.4,-363.65 341.89,-318.52 290.91,-295.63"/>
<polygon fill="#888888" stroke="#888888" points="292.25,-292.39 281.7,-291.49 289.38,-298.78 292.25,-292.39"/>
<text text-anchor="middle" x="409.5" y="-336.35" font-family="Arial" font-size="9.00" fill="#888888"> &#160;rdf:type</text>
</g>
<!-- Fred&#45;&gt;man -->
<g id="edge9" class="edge">
<title>Fred&#45;&gt;man</title>
<path fill="none" stroke="#888888" stroke-dasharray="5,2" d="M529.81,-382.83C568.53,-362.88 651.77,-320 696.36,-297.02"/>
<polygon fill="#888888" stroke="#888888" points="697.97,-300.13 705.26,-292.44 694.77,-293.91 697.97,-300.13"/>
<text text-anchor="middle" x="642.5" y="-336.35" font-family="Arial" font-size="9.00" fill="#888888"> &#160;rdf:type</text>
</g>
<!-- Tibbs -->
<g id="node11" class="node">
<title>Tibbs</title>
<ellipse fill="#f4a6a6" stroke="#c0392b" stroke-width="2.5" cx="509" cy="-280.75" rx="27" ry="18"/>
<text text-anchor="middle" x="509" y="-277.95" font-family="Arial" font-size="11.00">Tibbs</text>
</g>
<!-- Fred&#45;&gt;Tibbs -->
<g id="edge14" class="edge">
<title>Fred&#45;&gt;Tibbs</title>
<path fill="none" stroke="#2e75b6" stroke-width="2" d="M509,-376.08C509,-358.2 509,-330.14 509,-309.27"/>
<polygon fill="#2e75b6" stroke="#2e75b6" stroke-width="2" points="512.5,-309.1 509,-299.1 505.5,-309.1 512.5,-309.1"/>
<text text-anchor="middle" x="528" y="-336.35" font-family="Arial" font-size="9.00" fill="#2e75b6"> &#160;has_pet</text>
</g>
<!-- Tibbs&#45;&gt;cat -->
<g id="edge11" class="edge">
<title>Tibbs&#45;&gt;cat</title>
<path fill="none" stroke="#888888" stroke-dasharray="5,2" d="M499.76,-263.54C494.63,-253.61 488.74,-240.45 486,-227.95 482.74,-213.08 482.32,-196.1 482.79,-182.24"/>
<polygon fill="#888888" stroke="#888888" points="486.3,-182.07 483.32,-171.9 479.31,-181.71 486.3,-182.07"/>
<text text-anchor="middle" x="503.5" y="-220.75" font-family="Arial" font-size="9.00" fill="#888888"> &#160;rdf:type</text>
</g>
<!-- cat_liker -->
<g id="node12" class="node">
<title>cat_liker</title>
<ellipse fill="#f4a6a6" stroke="#c0392b" stroke-width="2.5" cx="398" cy="-280.75" rx="33.85" ry="18"/>
<text text-anchor="middle" x="398" y="-277.95" font-family="Arial" font-size="11.00">cat_liker</text>
</g>
<!-- cat_liker&#45;&gt;cat -->
<g id="edge15" class="edge">
<title>cat_liker&#45;&gt;cat</title>
<path fill="none" stroke="#8e44ad" stroke-width="2" d="M409.2,-263.68C424.22,-242.11 451.03,-203.62 468.41,-178.67"/>
<polygon fill="#8e44ad" stroke="#8e44ad" stroke-width="2" points="471.28,-180.67 474.12,-170.46 465.54,-176.67 471.28,-180.67"/>
<text text-anchor="middle" x="451" y="-220.75" font-family="Arial" font-size="9.00" fill="#8e44ad"> &#160;likes</text>
</g>
<!-- cat_liker&#45;&gt;person -->
<g id="edge12" class="edge">
<title>cat_liker&#45;&gt;person</title>
<path fill="none" stroke="#888888" stroke-dasharray="5,2" d="M425.81,-270.52C458.93,-259.22 511.91,-240.11 529,-227.95 547.67,-214.68 564.36,-194.74 575.87,-179.03"/>
<polygon fill="#888888" stroke="#888888" points="578.77,-180.99 581.71,-170.81 573.06,-176.94 578.77,-180.99"/>
<text text-anchor="middle" x="559.5" y="-220.75" font-family="Arial" font-size="9.00" fill="#888888"> &#160;rdf:type</text>
</g>
<!-- cat_liker&#45;&gt;vegetarian -->
<g id="edge13" class="edge">
<title>cat_liker&#45;&gt;vegetarian</title>
<path fill="none" stroke="#888888" stroke-dasharray="5,2" d="M382.44,-264.69C363.41,-246.26 330.6,-214.48 305.14,-189.83"/>
<polygon fill="#888888" stroke="#888888" points="307.46,-187.2 297.84,-182.76 302.59,-192.23 307.46,-187.2"/>
<text text-anchor="middle" x="359.5" y="-220.75" font-family="Arial" font-size="9.00" fill="#888888"> &#160;rdf:type</text>
</g>
<!-- leg_class -->
<g id="node14" class="node">
<title>leg_class</title>
<ellipse fill="#a8d5a2" stroke="#4a8c3f" cx="1002" cy="-394.55" rx="28.98" ry="12.96"/>
<text text-anchor="middle" x="1002" y="-392.35" font-family="Arial" font-size="9.00">Clase</text>
</g>
<!-- leg_restriccion -->
<g id="node15" class="node">
<title>leg_restriccion</title>
<ellipse fill="#c8e6c9" stroke="#2e7d32" cx="1002" cy="-280.75" rx="41.94" ry="19.6"/>
<text text-anchor="middle" x="1002" y="-283.55" font-family="Arial" font-size="9.00">Clase con</text>
<text text-anchor="middle" x="1002" y="-273.55" font-family="Arial" font-size="9.00">restricción</text>
</g>
<!-- leg_class&#45;&gt;leg_restriccion -->
<!-- leg_ind -->
<g id="node16" class="node">
<title>leg_ind</title>
<ellipse fill="#f4a6a6" stroke="#c0392b" cx="1002" cy="-153.84" rx="38.37" ry="12.96"/>
<text text-anchor="middle" x="1002" y="-151.64" font-family="Arial" font-size="9.00">Individuo</text>
</g>
<!-- leg_restriccion&#45;&gt;leg_ind -->
<!-- leg_other -->
<g id="node17" class="node">
<title>leg_other</title>
<ellipse fill="#fdebd0" stroke="#e67e22" cx="1002" cy="-28.73" rx="24.08" ry="12.96"/>
<text text-anchor="middle" x="1002" y="-26.53" font-family="Arial" font-size="9.00">Otro</text>
</g>
<!-- leg_ind&#45;&gt;leg_other -->
</g>
</svg>
