<?xml version="1.0" encoding="UTF-8" standalone="no"?>
<!DOCTYPE svg PUBLIC "-//W3C//DTD SVG 1.1//EN"
 "http://www.w3.org/Graphics/SVG/1.1/DTD/svg11.dtd">
<!-- Generated by graphviz version 2.43.0 (0)
 -->
<!-- Title: Ontologia3 Pages: 1 -->
<svg width="907pt" height="708pt"
 viewBox="0.00 0.00 907.00 708.45" xmlns="http://www.w3.org/2000/svg" xmlns:xlink="http://www.w3.org/1999/xlink">
<g id="graph0" class="graph" transform="scale(1 1) rotate(0) translate(36 672.45)">
<title>Ontologia3</title>
<polygon fill="white" stroke="transparent" points="-36,36 -36,-672.45 871,-672.45 871,36 -36,36"/>
<text text-anchor="start" x="228.5" y="-622.25" font-family="Arial" font-weight="bold" font-size="14.00">Ontología 3: Animales, Mascotas y Separación TBox/ABox</text>
<g id="clust1" class="cluster">
<title>cluster_tbox</title>
<path fill="#f0f6fc" stroke="#2e75b6" stroke-dasharray="5,2" d="M20,-8C20,-8 408,-8 408,-8 414,-8 420,-14 420,-20 420,-20 420,-593.45 420,-593.45 420,-599.45 414,-605.45 408,-605.45 408,-605.45 20,-605.45 20,-605.45 14,-605.45 8,-599.45 8,-593.45 8,-593.45 8,-20 8,-20 8,-14 14,-8 20,-8"/>
<text text-anchor="start" x="166" y="-592.85" font-family="Arial" font-weight="bold" font-size="12.00">TBox (Esquema)</text>
</g>
<g id="clust3" class="cluster">
<title>cluster_legend</title>
<path fill="white" stroke="#cccccc" d="M705,-144.38C705,-144.38 815,-144.38 815,-144.38 821,-144.38 827,-150.38 827,-156.38 827,-156.38 827,-586.18 827,-586.18 827,-592.18 821,-598.18 815,-598.18 815,-598.18 705,-598.18 705,-598.18 699,-598.18 693,-592.18 693,-586.18 693,-586.18 693,-156.38 693,-156.38 693,-150.38 699,-144.38 705,-144.38"/>
<text text-anchor="start" x="740" y="-587.18" font-family="Arial" font-weight="bold" font-size="10.00">Leyenda</text>
</g>
<g id="clust2" class="cluster">
<title>cluster_abox</title>
<path fill="#f0fcf3" stroke="#27ae60" stroke-dasharray="5,2" d="M440,-283.34C440,-283.34 607,-283.34 607,-283.34 613,-283.34 619,-289.34 619,-295.34 619,-295.34 619,-593.45 619,-593.45 619,-599.45 613,-605.45 607,-605.45 607,-605.45 440,-605.45 440,-605.45 434,-605.45 428,-599.45 428,-593.45 428,-593.45 428,-295.34 428,-295.34 428,-289.34 434,-283.34 440,-283.34"/>
<text text-anchor="start" x="472.5" y="-592.85" font-family="Arial" font-weight="bold" font-size="12.00">ABox (Instancias)</text>
</g>
<!-- Animal -->
<g id="node1" class="node">
<title>Animal</title>
<ellipse fill="#a8d5a2" stroke="#4a8c3f" stroke-width="2" cx="86" cy="-165.11" rx="70.01" ry="31.23"/>
<text text-anchor="middle" x="86" y="-174.31" font-family="Arial" font-size="11.00">Animal</text>
<text text-anchor="middle" x="86" y="-162.31" font-family="Arial" font-size="11.00">───────────</text>
<text text-anchor="middle" x="86" y="-150.31" font-family="Arial" font-size="11.00">eyes = 2</text>
</g>
<!-- eyes -->
<g id="node8" class="node">
<title>eyes</title>
<polygon fill="#e8daef" stroke="#8e44ad" stroke-width="1.5" points="124.5,-52 47.5,-52 47.5,-16 124.5,-16 124.5,-52"/>
<text text-anchor="middle" x="86" y="-37.2" font-family="Arial" font-size="11.00">eyes</text>
<text text-anchor="middle" x="86" y="-25.2" font-family="Arial" font-size="11.00">(xsd:integer)</text>
</g>
<!-- Animal&#45;&gt;eyes -->
<g id="edge3" class="edge">
<title>Animal&#45;&gt;eyes</title>
<path fill="none" stroke="#8e44ad" stroke-dasharray="1,5" d="M86,-133.84C86,-112.13 86,-83.14 86,-62.17"/>
<polygon fill="#8e44ad" stroke="#8e44ad" points="89.5,-62.02 86,-52.02 82.5,-62.02 89.5,-62.02"/>
<text text-anchor="middle" x="109.5" y="-90.8" font-family="Arial" font-size="9.00" fill="#8e44ad"> &#160;restricción</text>
</g>
<!-- Mammal -->
<g id="node2" class="node">
<title>Mammal</title>
<ellipse fill="#a8d5a2" stroke="#4a8c3f" stroke-width="2" cx="168" cy="-309.34" rx="70.01" ry="31.23"/>
<text text-anchor="middle" x="168" y="-318.54" font-family="Arial" font-size="11.00">Mammal</text>
<text text-anchor="middle" x="168" y="-306.54" font-family="Arial" font-size="11.00">───────────</text>
<text text-anchor="middle" x="168" y="-294.54" font-family="Arial" font-size="11.00">legs = 4</text>
</g>
<!-- Mammal&#45;&gt;Animal -->
<g id="edge1" class="edge">
<title>Mammal&#45;&gt;Animal</title>
<path fill="none" stroke="#4a8c3f" stroke-width="2" d="M134.93,-281.64C123.23,-270.6 111,-256.93 103,-242.23 97.03,-231.26 93.16,-218.32 90.65,-206.26"/>
<polygon fill="#4a8c3f" stroke="#4a8c3f" stroke-width="2" points="94.08,-205.59 88.84,-196.39 87.2,-206.85 94.08,-205.59"/>
<text text-anchor="middle" x="129" y="-235.03" font-family="Arial" font-size="9.00" fill="#4a8c3f"> &#160;subClassOf</text>
</g>
<!-- legs -->
<g id="node9" class="node">
<title>legs</title>
<polygon fill="#e8daef" stroke="#8e44ad" stroke-width="1.5" points="291.5,-183.11 214.5,-183.11 214.5,-147.11 291.5,-147.11 291.5,-183.11"/>
<text text-anchor="middle" x="253" y="-168.31" font-family="Arial" font-size="11.00">legs</text>
<text text-anchor="middle" x="253" y="-156.31" font-family="Arial" font-size="11.00">(xsd:integer)</text>
</g>
<!-- Mammal&#45;&gt;legs -->
<g id="edge4" class="edge">
<title>Mammal&#45;&gt;legs</title>
<path fill="none" stroke="#8e44ad" stroke-dasharray="1,5" d="M185.61,-278.87C200.88,-253.33 222.75,-216.72 237.4,-192.22"/>
<polygon fill="#8e44ad" stroke="#8e44ad" points="240.5,-193.85 242.63,-183.47 234.49,-190.26 240.5,-193.85"/>
<text text-anchor="middle" x="237.5" y="-235.03" font-family="Arial" font-size="9.00" fill="#8e44ad"> &#160;restricción</text>
</g>
<!-- Dog -->
<g id="node3" class="node">
<title>Dog</title>
<ellipse fill="#a8d5a2" stroke="#4a8c3f" stroke-width="2" cx="369" cy="-440.45" rx="27" ry="18"/>
<text text-anchor="middle" x="369" y="-437.65" font-family="Arial" font-size="11.00">Dog</text>
</g>
<!-- Dog&#45;&gt;Mammal -->
<g id="edge2" class="edge">
<title>Dog&#45;&gt;Mammal</title>
<path fill="none" stroke="#4a8c3f" stroke-width="2" d="M354.95,-425.01C341.24,-411.41 319.38,-391.02 298,-376.45 275.75,-361.29 249.55,-347.31 226.52,-336.16"/>
<polygon fill="#4a8c3f" stroke="#4a8c3f" stroke-width="2" points="227.74,-332.86 217.2,-331.71 224.72,-339.18 227.74,-332.86"/>
<text text-anchor="middle" x="337" y="-379.25" font-family="Arial" font-size="9.00" fill="#4a8c3f"> &#160;subClassOf</text>
</g>
<!-- Human -->
<g id="node4" class="node">
<title>Human</title>
<ellipse fill="#a8d5a2" stroke="#4a8c3f" stroke-width="2" cx="381" cy="-165.11" rx="31.04" ry="18"/>
<text text-anchor="middle" x="381" y="-162.31" font-family="Arial" font-size="11.00">Human</text>
</g>
<!-- owns -->
<g id="node5" class="node">
<title>owns</title>
<polygon fill="#fff3cd" stroke="#d4a017" stroke-width="1.5" points="364,-327.34 310,-327.34 310,-291.34 364,-291.34 364,-327.34"/>
<text text-anchor="middle" x="337" y="-306.54" font-family="Arial" font-size="11.00">owns</text>
</g>
<!-- owns&#45;&gt;Human -->
<g id="edge7" class="edge">
<title>owns&#45;&gt;Human</title>
<path fill="none" stroke="#d4a017" stroke-dasharray="1,5" d="M336.9,-291.33C337.24,-275.64 338.88,-251.89 345,-232.23 349.52,-217.71 357.36,-202.73 364.58,-190.71"/>
<polygon fill="#d4a017" stroke="#d4a017" points="367.6,-192.49 369.91,-182.15 361.65,-188.79 367.6,-192.49"/>
<text text-anchor="middle" x="364" y="-235.03" font-family="Arial" font-size="9.00" fill="#d4a017"> &#160;dominio</text>
</g>
<!-- hasPet -->
<g id="node6" class="node">
<title>hasPet</title>
<polygon fill="#fff3cd" stroke="#d4a017" stroke-width="1.5" points="214,-458.45 160,-458.45 160,-422.45 214,-422.45 214,-458.45"/>
<text text-anchor="middle" x="187" y="-437.65" font-family="Arial" font-size="11.00">hasPet</text>
</g>
<!-- hasPet&#45;&gt;Mammal -->
<g id="edge8" class="edge">
<title>hasPet&#45;&gt;Mammal</title>
<path fill="none" stroke="#d4a017" stroke-dasharray="1,5" d="M161.62,-422.41C150.29,-413.24 138.12,-400.85 132,-386.45 126.52,-373.57 130.18,-359.67 136.91,-347.33"/>
<polygon fill="#d4a017" stroke="#d4a017" points="139.99,-349 142.26,-338.65 134.03,-345.32 139.99,-349"/>
<text text-anchor="middle" x="146.5" y="-379.25" font-family="Arial" font-size="9.00" fill="#d4a017"> &#160;rango</text>
</g>
<!-- hasPet&#45;&gt;owns -->
<g id="edge5" class="edge">
<title>hasPet&#45;&gt;owns</title>
<path fill="none" stroke="#d4a017" stroke-width="2" d="M194.11,-422.36C200.42,-408.7 210.71,-389.71 224,-376.45 246.01,-354.48 276.78,-337.11 300.65,-325.69"/>
<polygon fill="#d4a017" stroke="#d4a017" stroke-width="2" points="302.16,-328.85 309.75,-321.47 299.21,-322.5 302.16,-328.85"/>
<text text-anchor="middle" x="256" y="-379.25" font-family="Arial" font-size="9.00" fill="#d4a017"> &#160;subPropertyOf</text>
</g>
<!-- petOf -->
<g id="node7" class="node">
<title>petOf</title>
<polygon fill="#fff3cd" stroke="#d4a017" stroke-width="1.5" points="214,-576.45 160,-576.45 160,-540.45 214,-540.45 214,-576.45"/>
<text text-anchor="middle" x="187" y="-555.65" font-family="Arial" font-size="11.00">petOf</text>
</g>
<!-- petOf&#45;&gt;hasPet -->
<g id="edge6" class="edge">
<title>petOf&#45;&gt;hasPet</title>
<path fill="none" stroke="#d4a017" stroke-width="2" d="M187,-540.33C187,-521.49 187,-490.92 187,-468.76"/>
<polygon fill="#d4a017" stroke="#d4a017" stroke-width="2" points="190.5,-468.64 187,-458.64 183.5,-468.64 190.5,-468.64"/>
<text text-anchor="middle" x="209" y="-497.25" font-family="Arial" font-size="9.00" fill="#d4a017"> &#160;inverseOf</text>
</g>
<!-- Robbie -->
<g id="node10" class="node">
<title>Robbie</title>
<ellipse fill="#48c9b0" stroke="#1abc9c" stroke-width="2.5" cx="494" cy="-558.45" rx="30.84" ry="18"/>
<text text-anchor="middle" x="494" y="-555.65" font-family="Arial" font-size="11.00">Robbie</text>
</g>
<!-- Robbie&#45;&gt;Dog -->
<g id="edge12" class="edge">
<title>Robbie&#45;&gt;Dog</title>
<path fill="none" stroke="#888888" stroke-dasharray="5,2" d="M477.52,-543.26C465.36,-532.7 448.49,-517.86 434,-504.45 431.85,-502.47 429.68,-500.44 427.49,-498.38"/>
<polygon fill="#888888" stroke="#888888" points="429.67,-495.63 420,-491.31 424.87,-500.72 429.67,-495.63"/>
<text text-anchor="middle" x="451.5" y="-497.25" font-family="Arial" font-size="9.00" fill="#888888"> &#160;rdf:type</text>
</g>
<!-- Zeus -->
<g id="node11" class="node">
<title>Zeus</title>
<ellipse fill="#48c9b0" stroke="#1abc9c" stroke-width="2.5" cx="513" cy="-440.45" rx="27" ry="18"/>
<text text-anchor="middle" x="513" y="-437.65" font-family="Arial" font-size="11.00">Zeus</text>
</g>
<!-- Robbie&#45;&gt;Zeus -->
<g id="edge9" class="edge">
<title>Robbie&#45;&gt;Zeus</title>
<path fill="none" stroke="#2e75b6" stroke-width="2" d="M488.14,-540.69C484.5,-527.9 481.17,-509.89 485,-494.45 487.43,-484.66 492.03,-474.68 496.82,-466.07"/>
<polygon fill="#2e75b6" stroke="#2e75b6" stroke-width="2" points="499.91,-467.71 501.98,-457.32 493.88,-464.15 499.91,-467.71"/>
<text text-anchor="middle" x="498.5" y="-497.25" font-family="Arial" font-size="9.00" fill="#2e75b6"> &#160;petOf</text>
</g>
<!-- Zeus&#45;&gt;Human -->
<g id="edge13" class="edge">
<title>Zeus&#45;&gt;Human</title>
<path fill="none" stroke="#888888" stroke-dasharray="5,2" d="M530.72,-426.6C542.33,-417.01 556.51,-402.79 563,-386.45 575.58,-354.79 624.9,-419.47 535,-278.23 509.46,-238.1 464.01,-207.68 429.09,-188.72"/>
<polygon fill="#888888" stroke="#888888" points="430.47,-185.49 420,-183.91 427.2,-191.68 430.47,-185.49"/>
<text text-anchor="middle" x="589.5" y="-307.14" font-family="Arial" font-size="9.00" fill="#888888"> &#160;rdf:type</text>
</g>
<!-- Zeus&#45;&gt;Robbie -->
<g id="edge10" class="edge">
<title>Zeus&#45;&gt;Robbie</title>
<path fill="none" stroke="#e67e22" stroke-width="2" d="M518.86,-458.21C522.5,-471.01 525.83,-489.01 522,-504.45 519.57,-514.24 514.97,-524.22 510.18,-532.83"/>
<polygon fill="#e67e22" stroke="#e67e22" stroke-width="2" points="507.09,-531.19 505.02,-541.58 513.12,-534.75 507.09,-531.19"/>
<text text-anchor="middle" x="536.5" y="-497.25" font-family="Arial" font-size="9.00" fill="#e67e22"> &#160;owns</text>
</g>
<!-- MrBurns -->
<g id="node12" class="node">
<title>MrBurns</title>
<ellipse fill="#48c9b0" stroke="#1abc9c" stroke-width="2.5" cx="471" cy="-309.34" rx="34.76" ry="18"/>
<text text-anchor="middle" x="471" y="-306.54" font-family="Arial" font-size="11.00">MrBurns</text>
</g>
<!-- Zeus&#45;&gt;MrBurns -->
<g id="edge11" class="edge">
<title>Zeus&#45;&gt;MrBurns</title>
<path fill="none" stroke="#c0392b" stroke-width="2" d="M504.31,-412.73C497.09,-390.54 486.88,-359.15 479.67,-336.98"/>
<polygon fill="#c0392b" stroke="#c0392b" stroke-width="2" points="501.09,-414.14 507.51,-422.57 507.74,-411.98 501.09,-414.14"/>
<polygon fill="#c0392b" stroke="#c0392b" stroke-width="2" points="482.91,-335.65 476.49,-327.22 476.26,-337.81 482.91,-335.65"/>
<text text-anchor="middle" x="521.5" y="-379.25" font-family="Arial" font-size="9.00" fill="#c0392b"> &#160;owl:sameAs</text>
</g>
<!-- MrBurns&#45;&gt;Human -->
<g id="edge14" class="edge">
<title>MrBurns&#45;&gt;Human</title>
<path fill="none" stroke="#888888" stroke-dasharray="5,2" d="M460.68,-292.02C451.89,-278.14 438.63,-257.19 425.44,-236.34"/>
<polygon fill="#888888" stroke="#888888" points="428.3,-234.32 420,-227.74 422.39,-238.06 428.3,-234.32"/>
<text text-anchor="middle" x="448" y="-235.03" font-family="Arial" font-size="9.00" fill="#888888"> &#160;rdf:type &#160;</text>
</g>
<!-- leg_class -->
<g id="node13" class="node">
<title>leg_class</title>
<ellipse fill="#a8d5a2" stroke="#4a8c3f" cx="760" cy="-558.45" rx="49.49" ry="12.96"/>
<text text-anchor="middle" x="760" y="-556.25" font-family="Arial" font-size="9.00">Clase (TBox)</text>
</g>
<!-- leg_objprop -->
<g id="node14" class="node">
<title>leg_objprop</title>
<polygon fill="#fff3cd" stroke="#d4a017" points="800,-449.45 720,-449.45 720,-431.45 800,-431.45 800,-449.45"/>
<text text-anchor="middle" x="760" y="-438.25" font-family="Arial" font-size="9.00">Object Property</text>
</g>
<!-- leg_class&#45;&gt;leg_objprop -->
<!-- leg_dataprop -->
<g id="node15" class="node">
<title>leg_dataprop</title>
<polygon fill="#e8daef" stroke="#8e44ad" points="805,-318.34 715,-318.34 715,-300.34 805,-300.34 805,-318.34"/>
<text text-anchor="middle" x="760" y="-307.14" font-family="Arial" font-size="9.00">Datatype Property</text>
</g>
<!-- leg_objprop&#45;&gt;leg_dataprop -->
<!-- leg_ind -->
<g id="node16" class="node">
<title>leg_ind</title>
<ellipse fill="#48c9b0" stroke="#1abc9c" cx="760" cy="-165.11" rx="59.29" ry="12.96"/>
<text text-anchor="middle" x="760" y="-162.91" font-family="Arial" font-size="9.00">Individuo (ABox)</text>
</g>
<!-- leg_dataprop&#45;&gt;leg_ind -->
</g>
</svg>
